$MeshFormat
4.1 0 8
$EndMeshFormat
$PhysicalNames
5
1 11 "Bottom"
1 12 "Top"
1 13 "Right"
1 14 "Left"
2 99999 "Elements"
$EndPhysicalNames
$Entities
4 4 1 0
1 0 0 0 0 
2 1 0 0 0 
3 0 1 0 0 
4 1 1 0 0 
11 0 0 0 1 0 0 1 11 2 1 -2 
12 0 1 0 1 1 0 1 12 2 4 -3 
13 1 0 0 1 1 0 1 13 2 2 -4 
14 0 0 0 0 1 0 1 14 2 3 -1 
1 0 0 0 1 1 0 1 99999 4 11 13 12 14 
$EndEntities
$Nodes
9 98 1 98
0 1 0 1
1
0 0 0
0 2 0 1
2
1 0 0
0 3 0 1
3
0 1 0
0 4 0 1
4
1 1 0
1 11 0 7
5
6
7
8
9
10
11
0.1249999999997738 0 0
0.2499999999994124 0 0
0.3749999999990479 0 0
0.4999999999986942 0 0
0.6249999999990126 0 0
0.7499999999993417 0 0
0.8749999999996708 0 0
1 12 0 7
12
13
14
15
16
17
18
0.8749999999995011 1 0
0.7500000000003465 1 0
0.6250000000012137 1 0
0.500000000002059 1 0
0.3750000000015605 1 0
0.2500000000010404 1 0
0.1250000000005201 1 0
1 13 0 7
19
20
21
22
23
24
25
1 0.1249999999997738 0
1 0.2499999999994124 0
1 0.3749999999990479 0
1 0.4999999999986942 0
1 0.6249999999990126 0
1 0.7499999999993417 0
1 0.8749999999996708 0
1 14 0 7
26
27
28
29
30
31
32
0 0.8749999999995011 0
0 0.7500000000003465 0
0 0.6250000000012137 0
0 0.500000000002059 0
0 0.3750000000015605 0
0 0.2500000000010404 0
0 0.1250000000005201 0
2 1 0 66
33
34
35
36
37
38
39
40
41
42
43
44
45
46
47
48
49
50
51
52
53
54
55
56
57
58
59
60
61
62
63
64
65
66
67
68
69
70
71
72
73
74
75
76
77
78
79
80
81
82
83
84
85
86
87
88
89
90
91
92
93
94
95
96
97
98
0.4375000000018098 0.8917468245270954 0
0.1212591409528901 0.4311211703685352 0
0.5624999999988534 0.1082531754730395 0
0.8892750608248819 0.5640948631063587 0
0.1082531754723038 0.6875000000007802 0
0.690108146438289 0.8929849573910127 0
0.312810865984173 0.1044931860863129 0
0.8817373148985181 0.3307740260777834 0
0.890514807813104 0.7966579344024687 0
0.1880296711609206 0.8941534943677034 0
0.812499999999506 0.1082531754733398 0
0.1207695367638072 0.1869093576240868 0
0.3125882785282735 0.892147936167085 0
0.3777617321236122 0.7851464931730501 0
0.5004602886882805 0.7837691230743562 0
0.4407840225037774 0.6771478521171512 0
0.564960049482756 0.6767503730786034 0
0.5004884414966647 0.567277882976253 0
0.3869428580759623 0.5672991787102901 0
0.4430103817492976 0.4568493155218519 0
0.5634998038750219 0.4584684189290819 0
0.5010850309385081 0.3501225286940344 0
0.3795377339355259 0.3481218582070821 0
0.6251266299094012 0.3504430388690966 0
0.6876877389643827 0.4586835206367175 0
0.4375000000020022 0.2422277716919826 0
0.75000000000057 0.3504809471648015 0
0.6866823184207802 0.2476289266480872 0
0.3141186395982236 0.2496554432804577 0
0.2441861548444152 0.3577361238201676 0
0.8124289467221131 0.4550024831196128 0
0.7500000000003217 0.5669872981100748 0
0.8221267806304088 0.6767859519483694 0
0.6985159857017829 0.6821170180061178 0
0.7624318058360666 0.7868767533111305 0
0.2353327497992248 0.7709339938935139 0
0.1082531754734316 0.312500000001173 0
0.2225773588041955 0.4734472164134149 0
0.1371230538040118 0.5617982471836261 0
0.2180925345221853 0.6548089282261794 0
0.6284495566844617 0.7850749770380402 0
0.6874999999992675 0.1082531754732872 0
0.4374999999991104 0.1082531754729983 0
0.5632759514069947 0.8921152691542631 0
0.6275253365868215 0.5683807519561415 0
0.5625000000014364 0.2422277716920833 0
0.1040995142213909 0.8120678220969118 0
0.191853721181113 0.09292564867358062 0
0.8965842169429771 0.1933620068391708 0
0.8088666438741593 0.8971730864423774 0
0.2076726160145944 0.2562891844220704 0
0.7989110605604646 0.2500733495358726 0
0.3260733379406406 0.6776011426060606 0
0.9154642987621083 0.4374999999988711 0
0.3281595767787979 0.4577243358118324 0
0.9226624454758982 0.6874999999991773 0
0.09150635094649401 0.9084936490535113 0
0.9084936490536325 0.9084936490536784 0
0.09150635094641726 0.09150635094661723 0
0.9084936490535547 0.09150635094629651 0
0.2698281199876322 0.5654465081585671 0
0.6249999999989277 0.1752404735813565 0
0.4999999999993456 0.1752404735815081 0
0.3750000000023208 0.1752404735838395 0
0.7398391675636558 0.1753067707867434 0
0.2510355733930947 0.1746449973844669 0
$EndNodes
$Elements
5 194 1 194
1 11 1 8
1 1 5 
2 5 6 
3 6 7 
4 7 8 
5 8 9 
6 9 10 
7 10 11 
8 11 2 
1 12 1 8
9 4 12 
10 12 13 
11 13 14 
12 14 15 
13 15 16 
14 16 17 
15 17 18 
16 18 3 
1 13 1 8
17 2 19 
18 19 20 
19 20 21 
20 21 22 
21 22 23 
22 23 24 
23 24 25 
24 25 4 
1 14 1 8
25 3 26 
26 26 27 
27 27 28 
28 28 29 
29 29 30 
30 30 31 
31 31 32 
32 32 1 
2 1 2 162
33 37 68 79 
34 68 37 72 
35 62 34 69 
36 59 40 63 
37 34 62 70 
38 63 40 86 
39 28 29 71 
40 65 41 67 
41 67 38 73 
42 41 65 88 
43 29 34 71 
44 37 28 71 
45 64 36 65 
46 63 36 64 
47 66 49 77 
48 66 67 73 
49 68 42 79 
50 34 70 71 
51 64 66 77 
52 49 66 73 
53 71 70 93 
54 72 71 93 
55 62 69 83 
56 40 59 84 
57 64 65 66 
58 43 81 84 
59 43 84 97 
60 68 72 85 
61 37 71 72 
62 66 65 67 
63 38 67 82 
64 33 45 46 
65 33 16 45 
66 34 30 69 
67 15 16 33 
68 45 42 68 
69 29 30 34 
70 73 38 76 
71 38 14 76 
72 17 42 45 
73 15 33 76 
74 35 9 74 
75 22 23 36 
76 31 44 69 
77 8 9 35 
78 14 15 76 
79 16 17 45 
80 39 7 75 
81 33 46 47 
82 30 31 69 
83 8 35 75 
84 33 47 76 
85 10 43 74 
86 7 8 75 
87 47 73 76 
88 17 18 42 
89 46 45 68 
90 9 10 74 
91 24 25 41 
92 31 32 44 
93 10 11 43 
94 6 7 39 
95 47 46 48 
96 57 64 77 
97 61 55 62 
98 57 63 64 
99 20 21 40 
100 27 28 37 
101 50 48 51 
102 54 52 55 
103 47 49 73 
104 57 59 63 
105 53 56 57 
106 50 51 52 
107 47 48 49 
108 54 55 58 
109 13 14 38 
110 57 56 59 
111 49 48 50 
112 53 52 54 
113 50 52 53 
114 53 54 56 
115 58 55 61 
116 53 57 77 
117 49 50 77 
118 50 53 77 
119 59 56 60 
120 54 58 78 
121 56 54 78 
122 60 56 78 
123 70 62 87 
124 44 80 98 
125 83 44 98 
126 26 27 79 
127 5 6 80 
128 19 20 81 
129 36 63 86 
130 12 13 82 
131 13 38 82 
132 65 36 88 
133 27 37 79 
134 6 39 80 
135 20 40 81 
136 87 51 93 
137 67 41 82 
138 51 48 85 
139 46 68 85 
140 22 36 86 
141 40 21 86 
142 62 55 87 
143 52 51 87 
144 36 23 88 
145 24 41 88 
146 3 26 89 
147 4 12 90 
148 1 5 91 
149 32 1 91 
150 2 19 92 
151 11 2 92 
152 18 3 89 
153 25 4 90 
154 51 85 93 
155 61 62 83 
156 69 44 83 
157 59 60 84 
158 70 87 93 
159 48 46 85 
160 81 40 84 
161 21 22 86 
162 55 52 87 
163 85 72 93 
164 19 81 92 
165 26 79 89 
166 5 80 91 
167 23 24 88 
168 42 18 89 
169 41 25 90 
170 44 32 91 
171 43 11 92 
172 12 82 90 
173 60 94 97 
174 39 75 96 
175 94 78 95 
176 35 74 94 
177 35 94 95 
178 78 58 95 
179 75 35 95 
180 60 78 94 
181 58 61 96 
182 95 58 96 
183 75 95 96 
184 94 74 97 
185 74 43 97 
186 79 42 89 
187 81 43 92 
188 80 44 91 
189 96 61 98 
190 39 96 98 
191 82 41 90 
192 80 39 98 
193 84 60 97 
194 61 83 98 
$EndElements
