$MeshFormat
4.1 0 8
$EndMeshFormat
$PhysicalNames
3
1 1 "Lower"
1 2 "Upper"
2 666666 "Elements"
$EndPhysicalNames
$Entities
5 4 1 0
1 0 0 0 0 
2 0.5 0 0 0 
3 -0.5 0 0 0 
4 1 0 0 0 
5 -1 0 0 0 
1 -0.5 0 0 0.5 0.492403876506104 0 1 1 2 2 -3 
2 -0.5 -0.492403876506104 0 0.5 0 0 1 1 2 3 -2 
3 -1 0 0 1 0.984807753012208 0 1 2 2 4 -5 
4 -1 -0.984807753012208 0 1 0 0 1 2 2 5 -4 
1 -1 -0.984807753012208 0 1 0.984807753012208 0 1 666666 4 3 4 -2 -1 
$EndEntities
$Nodes
9 172 1 172
0 2 0 1
1
0.5 0 0
0 3 0 1
2
-0.5 0 0
0 4 0 1
3
1 0 0
0 5 0 1
4
-1 0 0
1 1 0 10
5
6
7
8
9
10
11
12
13
14
0.4797464867153738 0.1408662787336118 0
0.4206267659834367 0.2703204094002433 0
0.3274303660284391 0.3778747879952861 0
0.2077075049510771 0.4548159983850593 0
0.0711574170352702 0.4949107212425981 0
-0.07115742125689972 0.4949107206356194 0
-0.2077075080732478 0.4548159969592117 0
-0.3274303679905537 0.3778747862951041 0
-0.4206267668871432 0.2703204079940485 0
-0.4797464869307271 0.140866278000186 0
1 2 0 10
15
16
17
18
19
20
21
22
23
24
-0.4797464867153738 -0.1408662787336118 0
-0.4206267659834367 -0.2703204094002433 0
-0.3274303660284391 -0.3778747879952861 0
-0.2077075049510771 -0.4548159983850593 0
-0.0711574170352702 -0.4949107212425981 0
0.07115742125689972 -0.4949107206356194 0
0.2077075080732478 -0.4548159969592117 0
0.3274303679905537 -0.3778747862951041 0
0.4206267668871432 -0.2703204079940485 0
0.4797464869307271 -0.140866278000186 0
1 3 0 20
25
26
27
28
29
30
31
32
33
34
35
36
37
38
39
40
41
42
43
44
0.9888308261749122 0.1490422665093377 0
0.9555728055832151 0.2947551750687729 0
0.9009688673892894 0.4338837401830829 0
0.8262387733839872 0.5633200594306262 0
0.7330518703532534 0.6801727393622865 0
0.6234897998405845 0.78183148407745 0
0.4999999973628295 0.8660254053070098 0
0.3653410210462658 0.930873749947259 0
0.2225209300196794 0.9749279130803349 0
0.0747300890940953 0.9972037975178336 0
-0.07473009805312332 0.9972037968464473 0
-0.2225209379075759 0.9749279112799739 0
-0.3653410277035106 0.9308737473344829 0
-0.5000000027896914 0.8660254021738095 0
-0.6234898040241975 0.78183148074113 0
-0.733051873333774 0.6801727361500494 0
-0.8262387753070681 0.5633200566099845 0
-0.9009688685052623 0.4338837378657415 0
-0.9555728060634907 0.2947551735117576 0
-0.9888308262956464 0.1490422657083187 0
1 4 0 20
45
46
47
48
49
50
51
52
53
54
55
56
57
58
59
60
61
62
63
64
-0.9888308261749122 -0.1490422665093377 0
-0.9555728055832151 -0.2947551750687729 0
-0.9009688673892894 -0.4338837401830829 0
-0.8262387733839872 -0.5633200594306262 0
-0.7330518703532534 -0.6801727393622865 0
-0.6234897998405845 -0.78183148407745 0
-0.4999999973628295 -0.8660254053070098 0
-0.3653410210462658 -0.930873749947259 0
-0.2225209300196794 -0.9749279130803349 0
-0.0747300890940953 -0.9972037975178336 0
0.07473009805312332 -0.9972037968464473 0
0.2225209379075759 -0.9749279112799739 0
0.3653410277035106 -0.9308737473344829 0
0.5000000027896914 -0.8660254021738095 0
0.6234898040241975 -0.78183148074113 0
0.733051873333774 -0.6801727361500494 0
0.8262387753070681 -0.5633200566099845 0
0.9009688685052623 -0.4338837378657415 0
0.9555728060634907 -0.2947551735117576 0
0.9888308262956464 -0.1490422657083187 0
2 1 0 108
65
66
67
68
69
70
71
72
73
74
75
76
77
78
79
80
81
82
83
84
85
86
87
88
89
90
91
92
93
94
95
96
97
98
99
100
101
102
103
104
105
106
107
108
109
110
111
112
113
114
115
116
117
118
119
120
121
122
123
124
125
126
127
128
129
130
131
132
133
134
135
136
137
138
139
140
141
142
143
144
145
146
147
148
149
150
151
152
153
154
155
156
157
158
159
160
161
162
163
164
165
166
167
168
169
170
171
172
0.005110660819836855 0.6219071163875438 0
-0.005110660819836855 -0.6219071163875438 0
-0.3301484958506558 0.525925170399332 0
0.3301484958506558 -0.525925170399332 0
0.3405587410578531 0.520479122883137 0
-0.3405587410578531 -0.520479122883137 0
-0.5622971920908481 0.2567925224114541 0
0.5622971920908481 -0.2567925224114541 0
0.5678742302427089 0.2537233727336046 0
-0.5678742302427089 -0.2537233727336046 0
0.8710302227070366 -0.06124744004428485 0
-0.8710302227070366 0.06124744004428485 0
-0.2623613800218714 0.8287398016757211 0
0.2623613800218714 -0.8287398016757211 0
0.2597343607044145 0.8297099822232333 0
-0.2597343607044145 -0.8297099822232333 0
-0.6936462750816196 0.5306247878186968 0
0.6936462750816196 -0.5306247878186968 0
0.6784479325983188 0.5410441741123618 0
-0.6784479325983188 -0.5410441741123618 0
0.8440323476731433 0.2081901371424345 0
-0.8440323476731433 -0.2081901371424345 0
-0.8077819661695456 0.3170310586197166 0
0.8077819661695456 -0.3170310586197166 0
0.6063048127086523 0.1320889019595205 0
-0.6063048127086523 -0.1320889019595205 0
0.6062498589728138 -0.1140974048472232 0
-0.6062498589728138 0.1140974048472232 0
-0.4961291016687129 0.3710918821378588 0
0.4961291016687129 -0.3710918821378588 0
0.440521684445187 0.4383806934702704 0
0.4541198671464231 0.5860193136957417 0
-0.440521684445187 -0.4383806934702704 0
-0.4541198671464231 -0.5860193136957417 0
-0.2094469148723596 0.5828774539262159 0
0.2094469148723596 -0.5828774539262159 0
0.13291753609279 0.6064878942205011 0
-0.13291753609279 -0.6064878942205011 0
-0.4877343035061153 0.7189686968794381 0
0.4877343035061153 -0.7189686968794381 0
-3.898076330413969e-09 0.8677674784312724 0
3.898076330413969e-09 -0.8677674784312724 0
0.3341043774959901 0.6855369028335926 0
-0.3341043774959901 -0.6855369028335926 0
-0.6595409550978316 0.3712191467258545 0
0.6595409550978316 -0.3712191467258545 0
-0.7088525556825683 0.2258483695553812 0
0.7088525556825683 -0.2258483695553812 0
-0.3319898864585571 0.6803334137968814 0
0.3319898864585571 -0.6803334137968814 0
0.6987238425857037 0.2440809532257644 0
0.6551321546054187 0.391845153672814 0
-0.6987238425857037 -0.2440809532257644 0
-0.6551321546054187 -0.391845153672814 0
0.06449784852532772 0.7409004307993432 0
-0.06138750386025667 0.7443431272302946 0
-0.06449784852532772 -0.7409004307993432 0
0.06138750386025667 -0.7443431272302946 0
0.469185664788949 0.7290038707200152 0
-0.469185664788949 -0.7290038707200152 0
0.8031975870510771 0.3404313387702992 0
-0.8031975870510771 -0.3404313387702992 0
-0.4622338184610153 0.587320805485093 0
0.4622338184610153 -0.587320805485093 0
0.5841504430346373 0.6426027860627087 0
-0.5841504430346373 -0.6426027860627087 0
-0.8561511068630178 0.194218926292809 0
0.8561511068630178 -0.194218926292809 0
0.8663694501258481 0.07521432876742572 0
0.7554470566814213 0.01827533619192723 0
-0.8663694501258481 -0.07521432876742572 0
-0.7554470566814213 -0.01827533619192723 0
-0.5972896029108122 0.6285341336369016 0
0.5972896029108122 -0.6285341336369016 0
-0.7776353680322655 0.4432157575279987 0
0.7776353680322655 -0.4432157575279987 0
-0.3894853200959492 0.8049882123720664 0
0.3894853200959492 -0.8049882123720664 0
-0.1350301004646173 0.8618922352463546 0
0.1350301004646173 -0.8618922352463546 0
0.134431564787893 0.862584361128073 0
-0.134431564787893 -0.862584361128073 0
-0.185016868799847 0.7225851266744882 0
0.185016868799847 -0.7225851266744882 0
0.5577426942780259 0.4941003932282657 0
-0.5577426942780259 -0.4941003932282657 0
0.1963020097642092 0.7201309447477741 0
-0.1963020097642092 -0.7201309447477741 0
0.3856730842796898 0.8082299822062218 0
-0.3856730842796898 -0.8082299822062218 0
0.739435174574214 -0.09311845800900788 0
-0.739435174574214 0.09311845800900788 0
-0.5575117654862847 0.4940914875154896 0
0.5575117654862847 -0.4940914875154896 0
0.7428872290030872 0.1304220282274511 0
-0.7428872290030872 -0.1304220282274511 0
-0.1043796095939052 0.6333247089708324 0
0.1043796095939052 -0.6333247089708324 0
0.534084083838171 0.364710238355698 0
-0.534084083838171 -0.364710238355698 0
0.2521263709788403 0.5955660972819021 0
-0.2521263709788403 -0.5955660972819021 0
-0.436230839697717 0.4757581692885333 0
0.436230839697717 -0.4757581692885333 0
0.6488328530613544 0.0152809939563364 0
-0.6488328530613544 -0.0152809939563364 0
0.7704994748524966 0.458598601832434 0
-0.7704994748524966 -0.458598601832434 0
$EndNodes
$Elements
5 344 1 344
1 1 1 11
1 1 5 
2 5 6 
3 6 7 
4 7 8 
5 8 9 
6 9 10 
7 10 11 
8 11 12 
9 12 13 
10 13 14 
11 14 2 
1 2 1 11
12 2 15 
13 15 16 
14 16 17 
15 17 18 
16 18 19 
17 19 20 
18 20 21 
19 21 22 
20 22 23 
21 23 24 
22 24 1 
1 3 1 21
23 3 25 
24 25 26 
25 26 27 
26 27 28 
27 28 29 
28 29 30 
29 30 31 
30 31 32 
31 32 33 
32 33 34 
33 34 35 
34 35 36 
35 36 37 
36 37 38 
37 38 39 
38 39 40 
39 40 41 
40 41 42 
41 42 43 
42 43 44 
43 44 4 
1 4 1 21
44 4 45 
45 45 46 
46 46 47 
47 47 48 
48 48 49 
49 49 50 
50 50 51 
51 51 52 
52 52 53 
53 53 54 
54 54 55 
55 55 56 
56 56 57 
57 57 58 
58 58 59 
59 59 60 
60 60 61 
61 61 62 
62 62 63 
63 63 64 
64 64 3 
2 1 2 280
65 127 137 157 
66 128 138 158 
67 85 26 125 
68 86 46 126 
69 109 87 111 
70 110 88 112 
71 77 113 147 
72 78 114 148 
73 92 71 111 
74 91 72 112 
75 107 79 151 
76 108 80 152 
77 113 77 141 
78 114 78 142 
79 5 1 89 
80 15 2 90 
81 7 6 95 
82 17 16 97 
83 13 12 93 
84 23 22 94 
85 9 8 101 
86 19 18 102 
87 11 10 99 
88 21 20 100 
89 71 109 111 
90 72 110 112 
91 14 71 92 
92 24 72 91 
93 26 27 125 
94 46 47 126 
95 79 107 153 
96 80 108 154 
97 115 85 125 
98 117 86 126 
99 95 6 163 
100 97 16 164 
101 99 10 161 
102 100 20 162 
103 101 8 165 
104 102 18 166 
105 93 12 167 
106 94 22 168 
107 89 1 169 
108 90 2 170 
109 137 81 157 
110 138 82 158 
111 116 83 149 
112 118 84 150 
113 127 157 167 
114 128 158 168 
115 30 31 123 
116 50 51 124 
117 87 109 139 
118 88 110 140 
119 109 81 139 
120 110 82 140 
121 120 143 147 
122 122 144 148 
123 83 29 129 
124 84 49 130 
125 83 116 171 
126 84 118 172 
127 111 87 131 
128 112 88 132 
129 81 109 157 
130 82 110 158 
131 143 77 147 
132 144 78 148 
133 64 3 75 
134 44 4 76 
135 38 39 103 
136 58 59 104 
137 34 35 105 
138 54 55 106 
139 42 43 87 
140 62 63 88 
141 25 26 85 
142 45 46 86 
143 28 29 83 
144 48 49 84 
145 40 41 81 
146 60 61 82 
147 32 33 79 
148 52 53 80 
149 36 37 77 
150 56 57 78 
151 30 123 129 
152 50 124 130 
153 127 103 137 
154 128 104 138 
155 111 131 156 
156 112 132 155 
157 6 5 73 
158 16 15 74 
159 14 13 71 
160 24 23 72 
161 12 11 67 
162 22 21 68 
163 8 7 69 
164 18 17 70 
165 10 9 65 
166 20 19 66 
167 1 24 91 
168 2 14 92 
169 73 5 89 
170 74 15 90 
171 69 96 107 
172 70 98 108 
173 73 115 116 
174 74 117 118 
175 71 13 93 
176 72 23 94 
177 69 7 95 
178 70 17 97 
179 67 11 99 
180 68 21 100 
181 65 9 101 
182 66 19 102 
183 107 151 165 
184 108 152 166 
185 65 119 120 
186 66 121 122 
187 29 30 129 
188 49 50 130 
189 73 89 115 
190 74 90 117 
191 69 95 96 
192 70 97 98 
193 67 99 113 
194 68 100 114 
195 71 93 109 
196 72 94 110 
197 65 101 119 
198 66 102 121 
199 145 119 151 
200 146 121 152 
201 91 155 169 
202 92 156 170 
203 113 99 147 
204 114 100 148 
205 119 105 120 
206 121 106 122 
207 116 149 163 
208 118 150 164 
209 103 113 141 
210 104 114 142 
211 113 103 127 
212 114 104 128 
213 107 96 123 
214 108 98 124 
215 155 134 169 
216 156 136 170 
217 120 105 143 
218 122 106 144 
219 105 119 145 
220 106 121 146 
221 116 115 125 
222 118 117 126 
223 134 133 159 
224 136 135 160 
225 79 145 151 
226 80 146 152 
227 83 129 149 
228 84 130 150 
229 75 133 134 
230 76 135 136 
231 67 113 127 
232 68 114 128 
233 91 112 155 
234 92 111 156 
235 159 89 169 
236 160 90 170 
237 6 73 163 
238 16 74 164 
239 10 65 161 
240 20 66 162 
241 8 69 165 
242 18 70 166 
243 107 123 153 
244 108 124 154 
245 12 67 167 
246 22 68 168 
247 134 159 169 
248 136 160 170 
249 133 85 159 
250 135 86 160 
251 44 76 131 
252 64 75 132 
253 87 43 131 
254 88 63 132 
255 75 3 133 
256 76 4 135 
257 34 105 145 
258 54 106 146 
259 103 39 137 
260 104 59 138 
261 42 87 139 
262 62 88 140 
263 38 103 141 
264 58 104 142 
265 105 35 143 
266 106 55 144 
267 25 85 133 
268 45 86 135 
269 40 81 137 
270 60 82 138 
271 81 41 139 
272 82 61 140 
273 79 33 145 
274 80 53 146 
275 77 37 141 
276 78 57 142 
277 36 77 143 
278 56 78 144 
279 123 96 129 
280 124 98 130 
281 43 44 131 
282 63 64 132 
283 3 25 133 
284 4 45 135 
285 33 34 145 
286 53 54 146 
287 39 40 137 
288 59 60 138 
289 41 42 139 
290 61 62 140 
291 37 38 141 
292 57 58 142 
293 35 36 143 
294 55 56 144 
295 116 125 171 
296 118 126 172 
297 129 96 149 
298 130 98 150 
299 1 91 169 
300 2 92 170 
301 132 75 155 
302 131 76 156 
303 31 32 153 
304 51 52 154 
305 27 28 171 
306 47 48 172 
307 96 95 149 
308 98 97 150 
309 123 31 153 
310 124 51 154 
311 149 95 163 
312 150 97 164 
313 32 79 153 
314 52 80 154 
315 85 115 159 
316 86 117 160 
317 151 101 165 
318 152 102 166 
319 115 89 159 
320 117 90 160 
321 157 93 167 
322 158 94 168 
323 125 27 171 
324 126 47 172 
325 119 101 151 
326 121 102 152 
327 109 93 157 
328 110 94 158 
329 75 134 155 
330 76 136 156 
331 28 83 171 
332 48 84 172 
333 65 120 161 
334 66 122 162 
335 73 116 163 
336 74 118 164 
337 69 107 165 
338 70 108 166 
339 67 127 167 
340 68 128 168 
341 147 99 161 
342 148 100 162 
343 120 147 161 
344 122 148 162 
$EndElements
