$MeshFormat
4.1 0 8
$EndMeshFormat
$PhysicalNames
3
1 1 "Lower"
1 2 "Upper"
2 666666 "Elements"
$EndPhysicalNames
$Entities
5 4 1 0
1 0 0 0 0 
2 0.5 0 0 0 
3 -0.5 0 0 0 
4 1 0 0 0 
5 -1 0 0 0 
1 -0.5 0 0 0.5 0.492403876506104 0 1 1 2 2 -3 
2 -0.5 -0.492403876506104 0 0.5 0 0 1 1 2 3 -2 
3 -1 0 0 1 0.984807753012208 0 1 2 2 4 -5 
4 -1 -0.984807753012208 0 1 0 0 1 2 2 5 -4 
1 -1 -0.984807753012208 0 1 0.984807753012208 0 1 666666 4 3 4 -2 -1 
$EndEntities
$Nodes
9 575 1 575
0 2 0 1
1
0.5 0 0
0 3 0 1
2
-0.5 0 0
0 4 0 1
3
1 0 0
0 5 0 1
4
-1 0 0
1 1 0 20
5
6
7
8
9
10
11
12
13
14
15
16
17
18
19
20
21
22
23
24
0.4944154130874561 0.07452113325466883 0
0.4777864027916076 0.1473775875343864 0
0.4504844336946447 0.2169418700915414 0
0.4131193866919936 0.2816600297153131 0
0.3665259351766267 0.3400863696811433 0
0.3117448999202923 0.390915742038725 0
0.2499999986814147 0.4330127026535049 0
0.1826705105231329 0.4654368749736295 0
0.1112604650098397 0.4874639565401674 0
0.03736504454704765 0.4986018987589168 0
-0.03736504902656166 0.4986018984232237 0
-0.1112604689537879 0.487463955639987 0
-0.1826705138517553 0.4654368736672415 0
-0.2500000013948457 0.4330127010869048 0
-0.3117449020120988 0.390915740370565 0
-0.366525936666887 0.3400863680750247 0
-0.4131193876535341 0.2816600283049923 0
-0.4504844342526311 0.2169418689328708 0
-0.4777864030317454 0.1473775867558788 0
-0.4944154131478232 0.07452113285415933 0
1 2 0 20
25
26
27
28
29
30
31
32
33
34
35
36
37
38
39
40
41
42
43
44
-0.4944154130874561 -0.07452113325466883 0
-0.4777864027916076 -0.1473775875343864 0
-0.4504844336946447 -0.2169418700915414 0
-0.4131193866919936 -0.2816600297153131 0
-0.3665259351766267 -0.3400863696811433 0
-0.3117448999202923 -0.390915742038725 0
-0.2499999986814147 -0.4330127026535049 0
-0.1826705105231329 -0.4654368749736295 0
-0.1112604650098397 -0.4874639565401674 0
-0.03736504454704765 -0.4986018987589168 0
0.03736504902656166 -0.4986018984232237 0
0.1112604689537879 -0.487463955639987 0
0.1826705138517553 -0.4654368736672415 0
0.2500000013948457 -0.4330127010869048 0
0.3117449020120988 -0.390915740370565 0
0.366525936666887 -0.3400863680750247 0
0.4131193876535341 -0.2816600283049923 0
0.4504844342526311 -0.2169418689328708 0
0.4777864030317454 -0.1473775867558788 0
0.4944154131478232 -0.07452113285415933 0
1 3 0 41
45
46
47
48
49
50
51
52
53
54
55
56
57
58
59
60
61
62
63
64
65
66
67
68
69
70
71
72
73
74
75
76
77
78
79
80
81
82
83
84
85
0.9972037971680964 0.07473009376101575 0
0.9888308261759516 0.1490422665024419 0
0.9749279120763843 0.222520934418274 0
0.9555728055873262 0.2947551750554453 0
0.9308737483139956 0.365341025207753 0
0.9009688673983667 0.4338837401642339 0
0.8660254030840642 0.5000000012130842 0
0.8262387733997006 0.5633200594075788 0
0.7818314812950962 0.6234898033295458 0
0.7330518703683591 0.6801727393460065 0
0.6801727360430114 0.7330518734330906 0
0.6234897998647487 0.7818314840581796 0
0.5633200557662867 0.8262387758822916 0
0.4999999973956352 0.8660254052880694 0
0.4338837361363028 0.900968869338116 0
0.3653410210880197 0.9308737499308718 0
0.2947551708240674 0.9555728068925333 0
0.2225209300702081 0.974927913068802 0
0.1490422620573756 0.9888308268459376 0
0.07473008915273296 0.9972037975134393 0
-4.608542153280227e-09 1 0
-0.07473009798753164 0.9972037968513627 0
-0.1490422703101306 0.9888308256020349 0
-0.2225209378234824 0.9749279112991678 0
-0.2947551779817733 0.9555728046846735 0
-0.3653410276479829 0.9308737473562759 0
-0.4338837420730283 0.9009688664791398 0
-0.5000000026826316 0.8660254022356206 0
-0.5633200605122552 0.826238772646545 0
-0.6234898039717373 0.7818314807829656 0
-0.6801727396299732 0.7330518701048765 0
-0.7330518732833914 0.6801727362043488 0
-0.7818314836968796 0.6234898003178047 0
-0.8262387752614131 0.5633200566769482 0
-0.8660254045428794 0.4999999986863423 0
-0.9009688684830561 0.4338837379118531 0
-0.9308737490252073 0.3653410233956151 0
-0.9555728060463499 0.294755173567327 0
-0.9749279123037677 0.222520933422042 0
-0.9888308262967015 0.149042265701319 0
-0.9972037971954609 0.07473009339586077 0
1 4 0 41
86
87
88
89
90
91
92
93
94
95
96
97
98
99
100
101
102
103
104
105
106
107
108
109
110
111
112
113
114
115
116
117
118
119
120
121
122
123
124
125
126
-0.9972037971680964 -0.07473009376101575 0
-0.9888308261759516 -0.1490422665024419 0
-0.9749279120763843 -0.222520934418274 0
-0.9555728055873262 -0.2947551750554453 0
-0.9308737483139956 -0.365341025207753 0
-0.9009688673983667 -0.4338837401642339 0
-0.8660254030840642 -0.5000000012130842 0
-0.8262387733997006 -0.5633200594075788 0
-0.7818314812950962 -0.6234898033295458 0
-0.7330518703683591 -0.6801727393460065 0
-0.6801727360430114 -0.7330518734330906 0
-0.6234897998647487 -0.7818314840581796 0
-0.5633200557662867 -0.8262387758822916 0
-0.4999999973956352 -0.8660254052880694 0
-0.4338837361363028 -0.900968869338116 0
-0.3653410210880197 -0.9308737499308718 0
-0.2947551708240674 -0.9555728068925333 0
-0.2225209300702081 -0.974927913068802 0
-0.1490422620573756 -0.9888308268459376 0
-0.07473008915273296 -0.9972037975134393 0
4.608542153280227e-09 -1 0
0.07473009798753164 -0.9972037968513627 0
0.1490422703101306 -0.9888308256020349 0
0.2225209378234824 -0.9749279112991678 0
0.2947551779817733 -0.9555728046846735 0
0.3653410276479829 -0.9308737473562759 0
0.4338837420730283 -0.9009688664791398 0
0.5000000026826316 -0.8660254022356206 0
0.5633200605122552 -0.826238772646545 0
0.6234898039717373 -0.7818314807829656 0
0.6801727396299732 -0.7330518701048765 0
0.7330518732833914 -0.6801727362043488 0
0.7818314836968796 -0.6234898003178047 0
0.8262387752614131 -0.5633200566769482 0
0.8660254045428794 -0.4999999986863423 0
0.9009688684830561 -0.4338837379118531 0
0.9308737490252073 -0.3653410233956151 0
0.9555728060463499 -0.294755173567327 0
0.9749279123037677 -0.222520933422042 0
0.9888308262967015 -0.149042265701319 0
0.9972037971954609 -0.07473009339586077 0
2 1 0 449
127
128
129
130
131
132
133
134
135
136
137
138
139
140
141
142
143
144
145
146
147
148
149
150
151
152
153
154
155
156
157
158
159
160
161
162
163
164
165
166
167
168
169
170
171
172
173
174
175
176
177
178
179
180
181
182
183
184
185
186
187
188
189
190
191
192
193
194
195
196
197
198
199
200
201
202
203
204
205
206
207
208
209
210
211
212
213
214
215
216
217
218
219
220
221
222
223
224
225
226
227
228
229
230
231
232
233
234
235
236
237
238
239
240
241
242
243
244
245
246
247
248
249
250
251
252
253
254
255
256
257
258
259
260
261
262
263
264
265
266
267
268
269
270
271
272
273
274
275
276
277
278
279
280
281
282
283
284
285
286
287
288
289
290
291
292
293
294
295
296
297
298
299
300
301
302
303
304
305
306
307
308
309
310
311
312
313
314
315
316
317
318
319
320
321
322
323
324
325
326
327
328
329
330
331
332
333
334
335
336
337
338
339
340
341
342
343
344
345
346
347
348
349
350
351
352
353
354
355
356
357
358
359
360
361
362
363
364
365
366
367
368
369
370
371
372
373
374
375
376
377
378
379
380
381
382
383
384
385
386
387
388
389
390
391
392
393
394
395
396
397
398
399
400
401
402
403
404
405
406
407
408
409
410
411
412
413
414
415
416
417
418
419
420
421
422
423
424
425
426
427
428
429
430
431
432
433
434
435
436
437
438
439
440
441
442
443
444
445
446
447
448
449
450
451
452
453
454
455
456
457
458
459
460
461
462
463
464
465
466
467
468
469
470
471
472
473
474
475
476
477
478
479
480
481
482
483
484
485
486
487
488
489
490
491
492
493
494
495
496
497
498
499
500
501
502
503
504
505
506
507
508
509
510
511
512
513
514
515
516
517
518
519
520
521
522
523
524
525
526
527
528
529
530
531
532
533
534
535
536
537
538
539
540
541
542
543
544
545
546
547
548
549
550
551
552
553
554
555
556
557
558
559
560
561
562
563
564
565
566
567
568
569
570
571
572
573
574
575
-0.3831549470058477 0.412942821879437 0
0.3863008328366758 -0.4030134145876971 0
-0.5386289947931958 0.1237778012323461 0
0.5464294523048352 -0.1231556448302523 0
-0.2408273676190982 0.5072867237582634 0
0.2409587316934184 -0.5061873529699342 0
-0.0908478108368589 0.5531477439939301 0
0.0904478964224408 -0.55356038315679 0
-0.4796889102822282 0.2812642829435112 0
0.496662728636552 -0.2769871467237788 0
0.5597368383539011 0.04508078027244469 0
-0.5536357781449638 -0.04381597359369094 0
0.08395849566990779 0.5570282388884544 0
-0.08249089477541138 -0.5565571223571278 0
0.374072841008776 0.4108995685025676 0
-0.3838473175189122 -0.4088624254385183 0
0.5336534513099914 0.209319306425046 0
-0.5225990047668327 -0.2014830312287561 0
0.2484962671798669 0.5102378659585965 0
-0.2414181346405368 -0.5056229712019422 0
0.7926643727248059 0.5076680467205001 0
-0.7854551019234859 -0.5003823937508994 0
-0.7134975780564591 0.613063164422016 0
0.700704424137825 -0.6104362137862771 0
-0.8842321639865058 0.3062819720970746 0
0.8825454254849452 -0.3104371846853431 0
-0.5549470893748666 0.7519266003396511 0
0.5453917514493188 -0.7501576269482371 0
-0.928661082719148 0.1046349740451163 0
0.9254140929755803 -0.1028204944027657 0
-0.3089965914778275 0.8884842432720342 0
0.2986223197889713 -0.8799504914175298 0
-0.0339719169567021 0.9335531091130668 0
0.03934217835013606 -0.9337810090488415 0
0.9221647763364885 0.1791581391666338 0
-0.9182449760748168 -0.1737413236634997 0
0.2418760368115741 0.9026936724872483 0
-0.2406699690014021 -0.906782690900203 0
0.5542797229938904 0.7418361226494921 0
-0.54642106853506 -0.7517582036919807 0
-0.7912953111675656 0.4972037960271156 0
0.7961730304622431 -0.4998108566828667 0
0.9338837391268926 0.03494346420019682 0
-0.9338837391268926 -0.03494346420019682 0
-0.4366799446592985 0.8262387730900513 0
0.4392422570690065 -0.8251572342966467 0
-0.1737413270966582 0.918244975762462 0
0.1662119981692208 -0.9146439194053839 0
0.1064326790871102 0.9336051458754423 0
-0.1070702928697721 -0.9365918260684282 0
0.436679939235498 0.8262387755218857 0
-0.4491527811008726 -0.8314895471618414 0
0.8900026259968421 0.3224692134052993 0
-0.8820941375827469 -0.308658089087464 0
0.6604101162287985 0.6676313860529161 0
-0.6638726441346942 -0.6562993201863219 0
0.5491964481723532 0.125350505749824 0
0.6173797499004096 0.09731186412713533 0
0.6302079740767612 0.01830148558775301 0
0.689281101793073 0.06896108977048294 0
0.6740630303979561 0.1455353344863535 0
0.7036220903258507 -0.005063522828457178 0
0.7462680587023718 0.1179552130437554 0
0.7325709064102593 0.1913811952620291 0
0.6629689346461816 0.2170983973560256 0
0.7192472384039236 0.26413233702112 0
0.6401823555474677 0.2887161324320754 0
0.7040341745054656 0.3375710305194051 0
0.6349314317539001 0.3623993387378903 0
0.6908624340059764 0.4094607518072522 0
0.6210053836824793 0.4356042910298591 0
0.5657425447075001 0.3910147414984029 0
0.5508131720266536 0.4612583596241532 0
0.6073572150942183 0.509403870198898 0
0.5368534183523316 0.5342472050022989 0
0.7607358366923483 0.3836879802513645 0
0.6479425504199892 -0.05402844749236848 0
0.7185215593238026 -0.07833489450063606 0
0.7748767234735477 -0.02928856104841583 0
0.789065301289148 -0.1026610659113095 0
0.7328859668251865 -0.1517010945358171 0
0.8033678443254961 -0.1760358414345759 0
0.7472056417535509 -0.2250737506982354 0
0.6765551343185839 -0.200770679812511 0
0.6908636049066421 -0.2741447907021491 0
0.6227567856217001 -0.2528180636183555 0
0.6349148676199426 -0.3237174046007496 0
0.7052554957584058 -0.3475996329169249 0
0.6488785019470276 -0.396692448522684 0
0.5788293085299019 -0.3724953316369502 0
0.5925410181518284 -0.4457216894617113 0
0.5242358700953211 -0.4235088842048559 0
0.536460312118858 -0.4951122911959769 0
0.6614998288289942 -0.4701734641245132 0
0.4826914477386568 0.486055303832905 0
0.4667294122700528 0.5590465505237195 0
0.5231020677789257 0.6076515363685827 0
0.4525794419255336 0.6324276161064828 0
0.3958492882049072 0.5837404924244788 0
0.3819636412463341 0.6571871960181871 0
0.3276749247020174 0.6089615427314822 0
0.3118434082988361 0.6820491992486796 0
0.261531218238224 0.631849392898254 0
0.2421155435955855 0.7065308787613973 0
0.2979067541919181 0.755420842481497 0
0.1896487709863113 0.6563963399914758 0
0.1714967423882952 0.7312260366176675 0
0.1136571926368668 0.6828581224399808 0
0.1000439915717878 0.7562762346010716 0
0.03885194930254296 0.7030547738027657 0
0.02864905944049786 0.7803421875824572 0
-0.03047360439209659 0.7281721724904284 0
-0.04232271900869393 0.8036462935790328 0
-0.09862820597418692 0.7561293998514356 0
0.156588095721927 0.8050158764854675 0
-0.08853398217700803 0.6763275603678848 0
-0.1546564293634604 0.7085269982511987 0
-0.1689188417745077 0.7808417604538552 0
-0.2252638866153432 0.7331169117582391 0
-0.2147391032690111 0.658427551552547 0
-0.2840762363955622 0.6862031855726182 0
-0.2968368406612215 0.7562070072084677 0
-0.3529937109573434 0.7093490253677451 0
-0.3386408467681336 0.6359251196890006 0
-0.4092645278224722 0.6606971256666656 0
-0.3912512111622944 0.5865528905273903 0
-0.4652276467400585 0.6118980939140769 0
-0.4511735706456922 0.5382684590553938 0
-0.5223580176135895 0.5632563530362834 0
-0.5085893881001669 0.4897093029986968 0
-0.5792886999653508 0.5146047491385866 0
-0.5654943150010741 0.4411301036832149 0
-0.6360598876565429 0.4659311601347063 0
-0.6222571464279429 0.3924584793912338 0
-0.6920291401675043 0.4163500949630627 0
-0.6788628241996496 0.3436203079726467 0
-0.7486113088808747 0.3674843549656566 0
-0.7326071564928571 0.2954251942519323 0
-0.664646061377309 0.2703299446552398 0
-0.7183638317684927 0.2222191246492906 0
-0.6517791689682623 0.1981920778553738 0
-0.7075767398361862 0.1484614549281 0
-0.7848344382090306 0.183077404762663 0
-0.7657697873735546 0.1011867371495611 0
-0.6943618670850337 0.0750073514210888 0
-0.7511813102565101 0.02631613308981309 0
-0.6819602135976872 0.002985453775022696 0
-0.737475183665896 -0.04714409249604416 0
-0.6702617946974703 -0.06869608299805101 0
-0.7245082234651492 -0.1197607260527738 0
-0.7940419078184743 -0.09591487848635505 0
-0.7802038043505093 -0.1693979833106546 0
-0.7122933005748182 -0.1940242208747889 0
-0.7655829590903687 -0.2428031844765064 0
-0.6981347109929666 -0.2681700951945915 0
-0.7515763669569904 -0.3163771120635424 0
-0.6821888942713469 -0.3413866577461213 0
-0.6282254555166871 -0.29459850576966 0
-0.6119501106856914 -0.366472355461636 0
-0.6682334567338044 -0.4149024025691821 0
-0.5976687010650342 -0.4396653702253994 0
-0.6543094939851382 -0.4883235321810775 0
-0.5829580829796075 -0.5144492500765995 0
-0.5426727080961008 -0.39335441085476 0
-0.8193031468992218 0.04933782924149135 0
-0.590684058615493 0.5871462591380252 0
0.4382254333306899 0.7045338507036967 0
-0.4917192506941812 0.40882114766109 0
0.786205453806239 0.238805396427703 0
-0.5978997213541251 0.2441184152978601 0
-0.625400522457177 0.05092187919789246 0
0.3363011116480625 0.5297650069872957 0
0.4665390027218109 -0.4718128539176362 0
0.4799031252581159 -0.5441126544285819 0
0.5503244042289709 -0.5681214590215672 0
0.4939791062560629 -0.6172481735440121 0
0.4232876756700281 -0.592957739565633 0
0.4375563230864126 -0.6662956530239045 0
0.3668515218016694 -0.6419908949843472 0
0.3800192649269166 -0.7140619344528454 0
0.3102584254032471 -0.6908425093402523 0
0.354541351694916 -0.5709064181190268 0
0.5618069172867527 -0.6382492058139543 0
0.3230999328452283 -0.762534860111226 0
0.2537428237984922 -0.7397811450072145 0
0.2421101414817184 -0.66711342996626 0
0.185567403961896 -0.7179865950616168 0
0.1976516044180736 -0.7892091173875109 0
0.1273226968094153 -0.7652643679586711 0
0.1156226655447027 -0.6821850101295558 0
0.05681373209558803 -0.7391031817015786 0
0.04935953100084565 -0.6756863295546 0
-0.01200235752351027 -0.7013501511290924 0
0.0003018498431735419 -0.7868654638675326 0
-0.07035495789064473 -0.7624084142961202 0
-0.09220225444766417 -0.6839480095684675 0
-0.1426270667223018 -0.7392268267579436 0
-0.1618761772723715 -0.6670600997403436 0
-0.2134132063974316 -0.716344255485358 0
-0.2265184132252483 -0.6433786750410773 0
-0.2831128535562596 -0.6923796777598205 0
-0.2941000043450137 -0.6196734667623556 0
-0.3531216367041573 -0.668230979786014 0
-0.3679034818846449 -0.594766904365483 0
-0.4242197477148248 -0.6438512389704142 0
-0.4384129335458589 -0.5704302146281036 0
-0.495491291970553 -0.6180519787932345 0
-0.2694854310524756 -0.7650149078323244 0
-0.1261502162389748 -0.8101923442704543 0
-0.4118913937259818 -0.7155406118577825 0
-0.3818650849169311 -0.5234613037466106 0
-0.4541914493956059 -0.4998089714370655 0
-0.3808098192156427 0.5089358220459651 0
0.8541852731765079 -0.05215969361449166 0
0.8283836200507708 0.02275384219222907 0
-0.6426615268520868 -0.5761578656178488 0
-0.4900496351304319 0.6943012899867328 0
0.01161960603760078 0.8631614488548055 0
-0.5419208730467101 -0.1238265338680581 0
-0.591267801949406 -0.1722109073654041 0
0.1627649333357039 0.5342940267734574 0
-0.1596044120733856 -0.5453362335387375 0
0.4849836427223536 0.281295580324806 0
-0.4878494805136818 -0.2816600298213227 0
0.4385353737644889 0.3612473669791016 0
-0.4372327195569488 -0.3567520092728407 0
-0.0100525805591771 0.5698039045957565 0
0.01006079530201002 -0.5681680030471467 0
0.320271768730039 -0.4661017805546667 0
0.4401084679406288 -0.3491433623662061 0
-0.1656472639056042 0.534543559949896 0
0.1656025048990924 -0.5344291026803554 0
0.5237008873828694 -0.1973841278835042 0
-0.8431561411564034 -0.2229121535964115 0
-0.7132430152669749 -0.5351290061034814 0
-0.1429330129451898 0.6147271797675037 0
0.4570162852597268 -0.7461332550427112 0
0.6219505736553248 -0.5907201500387974 0
0.5644292716407563 0.2718148121312866 0
0.1432335919182807 -0.6044656250184074 0
0.1435087371827634 -0.8376247960427299 0
0.8283619407012827 -0.2553724388431436 0
0.8681588687765597 -0.1970191730014464 0
0.2225903129905338 -0.5912429040802394 0
0.5692754520418062 -0.04122447337345459 0
0.04971987412098385 0.6271430841458489 0
-0.7122807201369725 0.4956018811861613 0
-0.3262184708216396 -0.4678459609950958 0
-0.4404213566331681 0.3512243103800502 0
-0.04926171824101703 -0.6231872849869508 0
-0.3665490849808672 0.7843688061161279 0
-0.5678400126733363 -0.5890728449373132 0
-0.223640190536457 0.5826033829398503 0
-0.3100207897265188 0.5584284672040666 0
0.635342113225695 -0.6658016495724508 0
-0.5250026220790204 0.2081074535503903 0
-0.3127596378290087 0.4685870460575337 0
-0.8096103463261025 0.318414428657137 0
-0.8200721580248344 0.3939886912805036 0
-0.8362379716263109 0.2476413442013864 0
0.6004088527484555 -0.1778773077786219 0
-0.4410584365843233 0.4619557313868558 0
-0.6110334712790881 0.3183332892071223 0
-0.5567054353927864 0.3654497639344874 0
-0.6431908497121308 0.1243238370557542 0
0.2976906950275954 -0.6192564413347886 0
0.4155057850137606 0.5110470824402993 0
-0.3055753452469344 -0.5475076093212436 0
0.4109811348102002 -0.5218829578326437 0
0.6637516666042251 -0.127160129736259 0
-0.5258453759213286 -0.4684562993614149 0
-0.5567668029725237 -0.3223118762699414 0
0.4978020711513604 0.4141941725009166 0
0.568236143637236 -0.3029938140921645 0
-0.7349847618833196 -0.3893933630448829 0
-0.8085018744007721 -0.3655025693068627 0
0.268526461422302 -0.8123869054512921 0
0.6763772123789435 0.4824919090818521 0
0.6640809462779192 0.5580378141663841 0
-0.113662571133177 0.8241207265151673 0
-0.2416952532144411 0.7991808193946203 0
-0.8518012055697282 0.1233878333142705 0
0.714876223907553 -0.4207694018462627 0
0.7810212484485284 -0.3784565141185601 0
0.5092257405345394 0.6810895602635331 0
0.5853867627966978 0.6577545568552787 0
-0.05389422088080466 -0.8345839976514299 0
0.7617152313704946 -0.299093864101998 0
0.07130444635212063 -0.812555444095187 0
-0.4233049455329429 0.7391629271135564 0
-0.8067225879088868 -0.02266045021118773 0
-0.8651283920098954 -0.06810210675492401 0
0.6065985428723634 -0.5187528604444362 0
-0.1987587268769372 -0.7877533222866528 0
0.3674045579724632 0.7281817677786634 0
0.3624309114404737 0.8051413920160367 0
0.2817746125866547 0.8370584106119682 0
-0.5364286026411169 0.6367907847314256 0
-0.6020909190359386 0.6514337671965533 0
-0.3390827493934534 -0.7392488262518356 0
-0.324183538994848 -0.8112819433184743 0
0.5931793352831081 0.5793138025437125 0
0.5089397708491863 -0.6880220542217251 0
-0.6448860090227605 0.5376843552922602 0
0.2271121260857141 0.7802266642868858 0
0.08364434721505566 0.8263078627163646 0
-0.4852594522288903 -0.6941860859999381 0
-0.5513989807666606 -0.6686022452611899 0
0.7715410014539035 0.3116518570048042 0
0.8004921268438553 0.1656754133569766 0
-0.7239188615627177 -0.462737508229362 0
0.7599106317520394 0.04468300616364268 0
-0.4659138970370277 -0.7642471819573899 0
0.6079595088489292 0.1721783223997642 0
0.812767506389745 0.09336566737561548 0
0.01814298001525472 -0.8612118629389389 0
-0.852933241295632 -0.1419342574796675 0
0.6768151202502045 -0.5426681088240518 0
0.3163230644634928 0.4618861036981185 0
-0.5107898577477149 -0.5433782598722884 0
0.8593847654081515 -0.1287038239682139 0
0.8246495198064308 0.3528962593473871 0
-0.488586891553709 0.7763588339966244 0
-0.02024081248882108 0.6533497424384288 0
0.8523929859535772 0.208710495609032 0
-0.1838672037028203 -0.8574858301415488 0
0.9326202762141522 -0.03059707105865946 0
-0.9055179929344479 0.2387504245027909 0
0.1368777935177827 0.6050709771217949 0
0.09079536103514482 -0.8838194644550614 0
-0.04070346330072791 -0.91901406780869 0
0.2166588408467737 -0.8584517146394984 0
0.8243025231800114 0.4303119007920778 0
-0.4644001987783428 -0.4220229396062472 0
-0.6590114352630304 -0.1445520886377062 0
0.5113566033282586 -0.3504343730851172 0
-0.8738761074669744 0.00286465904152783 0
0.7269486950108855 0.53008076429188 0
-0.6119950457287786 -0.7069729062315216 0
-0.7561553301954983 0.5580680286137996 0
0.7525111365660391 -0.5565606963558396 0
0.4939525403271684 0.7938815975150528 0
-0.9147991944955355 -0.2445175351642189 0
0.03743009111698901 0.9353851292212054 0
0.9306056232994773 0.1078334155212296 0
-0.9260374953085475 -0.1070822520602909 0
0.178186639724767 0.9187880655183092 0
0.5009940713945878 -0.802742458233952 0
-0.9368396962102969 0.03521392628805915 0
-0.3709064009951521 0.8582993699710681 0
0.3758157122131265 -0.861378754323218 0
-0.2408629949139013 0.9072145647421195 0
-0.1032117721903784 0.9320550397021582 0
0.8613787560526501 -0.3758157082500548 0
0.8308854233757987 -0.4391357661840911 0
-0.3098704322006191 -0.8835760436817514 0
-0.8341657583735596 -0.4357026176130943 0
0.7114077229622887 0.6053425619887043 0
-0.7166593796102079 -0.6060104494419772 0
-0.2350415580329051 -0.5787913163587239 0
-0.2544725503048503 -0.8353157896934924 0
-0.379049622628922 -0.8562696830606584 0
-0.9196918327358117 0.1718109597316059 0
-0.1899316532221394 0.8528117330452595 0
-0.556548810852351 0.04139611189504223 0
0.2186793143244821 0.57660314262333 0
-0.7637677222509272 0.4369941294742918 0
-0.8101822958374563 -0.2912506217061574 0
0.5225399798594462 0.341512455842413 0
0.6207478275854292 0.7164210846097913 0
0.3390948830055066 0.8680075067344968 0
-0.8587056961262323 0.1893675253170435 0
-0.06855777697006685 0.8733613038501832 0
-0.1214114159126935 -0.6145529487464358 0
-0.1703596991393312 -0.9238217223088466 0
-0.5716403150937777 -0.2529131501210756 0
0.7291751114226557 -0.4887170455569276 0
0.2078914076357573 0.8471767701659494 0
-0.591532074984824 0.1653793326847953 0
0.7451134632843646 0.4527014559485849 0
0.3861955233817676 -0.785054531147554 0
0.1330855438957253 0.8692801657886687 0
0.8785374553187149 0.07008344529486342 0
0.8661600790236428 0.1374710960540585 0
-0.6044516911544704 -0.09110643354245963 0
-0.3948789971468509 -0.7863462989346637 0
0.2983082122633302 -0.5444679939177844 0
0.9038455807000837 0.2520272317102714 0
-0.6712915219302836 0.6621694061143786 0
0.2450946640201015 -0.9147057246941572 0
-0.6456736831856156 -0.2212027326602203 0
0.8210976534717966 -0.3246508243243749 0
-0.5492559117847127 0.2920805068028406 0
-0.6177502500513958 -0.01470108528879726 0
-0.3107481661855903 0.8213972957574536 0
0.9285239241418495 -0.1677880169136421 0
-0.4982627479292038 -0.3448728055911944 0
0.9083343475426631 -0.2482559168684529 0
0.4281300945564621 0.7658329782246546 0
0.1062618261413734 -0.9430997551992886 0
-0.2776466036910906 0.6222584582696777 0
-0.8713208772138883 -0.3818176082758816 0
0.2785365672185306 0.5714833902397917 0
0.606195935989334 -0.1002483542975998 0
0.609166103080016 -0.7242311489180883 0
-0.8820962477730738 0.06308784438609301 0
0.4343994200907367 0.4408097053412235 0
0.4595639194102132 -0.4094542197555046 0
0.06982752906843553 -0.6178065464497544 0
-0.6041668784051463 -0.637421708100243 0
-0.6107891473503231 0.7188171850710497 0
-0.7652957397440369 -0.5648139620686591 0
0.5846745984006243 0.3303159363691731 0
0.180296535176531 -0.6553827170262342 0
0.3287355206185648 -0.8231301861466406 0
-0.7748172986080702 0.2496922755608117 0
-0.8303996955609213 0.4521171160304612 0
-0.5006176019793842 0.3400207868406683 0
0.4893184655743509 0.7371868430320186 0
-0.5588610787065353 0.6906539254650824 0
0.8381061946195125 0.2810934089174161 0
-0.6540440836613819 0.6011800891616647 0
-0.1092510201994139 -0.8735727926406079 0
-0.070521639801411 0.6134712262327008 0
-0.8722220106504119 0.3664843331388617 0
0.06893057485007033 0.8850644884459961 0
-0.4031420442888425 -0.4673476965221663 0
0.7704262075233558 -0.4453779168777416 0
-0.7748916692796299 -0.4337841144063584 0
0.6043120570466703 0.2337194318932285 0
0.3995755119920696 -0.4642297155160331 0
-0.4393001806454993 0.4076109982429359 0
0.3933826320658156 0.862036064614832 0
0.3727100444710651 0.4680105400995314 0
-0.1297972885690505 0.8836312053368688 0
0.5649765445562337 -0.24336243737564 0
0.356735595898111 -0.5135177731880309 0
0.7703458402964909 0.5683600922631459 0
0.6426003847206005 0.6112511957578565 0
0.01359675592135278 -0.6372396630335089 0
-0.6997584127225382 0.5576010467019539 0
0.8855220727774077 0.009004797402827639 0
-0.2584469318027799 0.8538177312422973 0
0.8758498583708101 0.3818354982640091 0
-0.1815025791213181 -0.6102253082856135 0
-0.5066561029416952 -0.8094172157401963 0
0.5671320684805846 -0.6942901743504627 0
-0.5922665713335633 0.09568357201253844 0
0.2987110616573921 0.9009100599250749 0
$EndNodes
$Elements
5 1150 1 1150
1 1 1 21
1 1 5 
2 5 6 
3 6 7 
4 7 8 
5 8 9 
6 9 10 
7 10 11 
8 11 12 
9 12 13 
10 13 14 
11 14 15 
12 15 16 
13 16 17 
14 17 18 
15 18 19 
16 19 20 
17 20 21 
18 21 22 
19 22 23 
20 23 24 
21 24 2 
1 2 1 21
22 2 25 
23 25 26 
24 26 27 
25 27 28 
26 28 29 
27 29 30 
28 30 31 
29 31 32 
30 32 33 
31 33 34 
32 34 35 
33 35 36 
34 36 37 
35 37 38 
36 38 39 
37 39 40 
38 40 41 
39 41 42 
40 42 43 
41 43 44 
42 44 1 
1 3 1 42
43 3 45 
44 45 46 
45 46 47 
46 47 48 
47 48 49 
48 49 50 
49 50 51 
50 51 52 
51 52 53 
52 53 54 
53 54 55 
54 55 56 
55 56 57 
56 57 58 
57 58 59 
58 59 60 
59 60 61 
60 61 62 
61 62 63 
62 63 64 
63 64 65 
64 65 66 
65 66 67 
66 67 68 
67 68 69 
68 69 70 
69 70 71 
70 71 72 
71 72 73 
72 73 74 
73 74 75 
74 75 76 
75 76 77 
76 77 78 
77 78 79 
78 79 80 
79 80 81 
80 81 82 
81 82 83 
82 83 84 
83 84 85 
84 85 4 
1 4 1 42
85 4 86 
86 86 87 
87 87 88 
88 88 89 
89 89 90 
90 90 91 
91 91 92 
92 92 93 
93 93 94 
94 94 95 
95 95 96 
96 96 97 
97 97 98 
98 98 99 
99 99 100 
100 100 101 
101 101 102 
102 102 103 
103 103 104 
104 104 105 
105 105 106 
106 106 107 
107 107 108 
108 108 109 
109 109 110 
110 110 111 
111 111 112 
112 112 113 
113 113 114 
114 114 115 
115 115 116 
116 116 117 
117 117 118 
118 118 119 
119 119 120 
120 120 121 
121 121 122 
122 122 123 
123 123 124 
124 124 125 
125 125 126 
126 126 3 
2 1 2 1024
127 155 408 489 
128 232 455 492 
129 252 339 380 
130 236 238 450 
131 339 127 383 
132 363 154 429 
133 117 150 381 
134 242 243 362 
135 154 363 474 
136 380 339 383 
137 72 73 449 
138 182 342 485 
139 153 343 449 
140 250 252 380 
141 489 408 498 
142 243 246 362 
143 355 132 513 
144 322 376 500 
145 165 411 412 
146 127 339 388 
147 342 182 536 
148 298 145 445 
149 455 347 492 
150 180 360 469 
151 360 180 494 
152 184 187 440 
153 116 117 381 
154 362 246 379 
155 376 319 566 
156 343 153 546 
157 126 3 453 
158 372 236 450 
159 203 185 371 
160 394 328 486 
161 105 106 457 
162 145 298 529 
163 150 364 381 
164 158 403 458 
165 353 139 372 
166 131 380 383 
167 185 137 371 
168 38 132 355 
169 12 145 347 
170 32 146 348 
171 42 136 359 
172 34 140 354 
173 14 139 353 
174 8 349 351 
175 28 350 352 
176 166 433 434 
177 165 412 496 
178 174 367 456 
179 322 319 376 
180 354 140 376 
181 159 344 470 
182 156 340 447 
183 158 458 516 
184 355 513 563 
185 340 156 453 
186 377 171 416 
187 319 318 566 
188 358 366 370 
189 357 362 379 
190 269 386 498 
191 324 322 500 
192 433 166 439 
193 73 153 449 
194 171 72 449 
195 370 366 540 
196 183 184 440 
197 336 439 512 
198 359 136 562 
199 443 418 472 
200 368 152 524 
201 234 372 455 
202 146 394 486 
203 386 269 542 
204 451 514 547 
205 408 155 532 
206 238 242 450 
207 351 349 495 
208 352 350 523 
209 162 360 443 
210 514 179 547 
211 348 146 486 
212 234 236 372 
213 347 145 492 
214 344 159 499 
215 461 346 511 
216 346 345 511 
217 416 171 449 
218 360 162 469 
219 229 232 492 
220 480 410 481 
221 162 443 472 
222 174 456 526 
223 187 191 440 
224 156 126 453 
225 3 169 453 
226 382 135 519 
227 349 365 495 
228 350 144 502 
229 180 402 494 
230 50 51 459 
231 106 160 457 
232 176 105 457 
233 148 361 437 
234 146 374 394 
235 374 337 394 
236 397 289 446 
237 333 378 434 
238 342 361 485 
239 364 150 444 
240 296 382 519 
241 167 373 466 
242 402 180 528 
243 365 143 556 
244 495 365 539 
245 290 460 523 
246 336 433 439 
247 369 368 524 
248 338 397 446 
249 143 440 556 
250 183 137 184 
251 144 345 346 
252 132 358 370 
253 131 357 379 
254 358 134 366 
255 357 133 362 
256 349 143 365 
257 439 178 512 
258 452 501 549 
259 372 139 455 
260 312 370 540 
261 242 362 550 
262 337 374 553 
263 343 416 449 
264 398 350 502 
265 328 326 486 
266 363 172 474 
267 376 140 500 
268 370 312 392 
269 138 491 520 
270 80 385 543 
271 385 80 551 
272 367 174 458 
273 374 142 553 
274 39 38 355 
275 13 12 347 
276 33 32 348 
277 43 42 359 
278 35 34 354 
279 15 14 353 
280 9 8 351 
281 29 28 352 
282 20 127 375 
283 135 21 375 
284 137 1 371 
285 44 130 371 
286 18 131 383 
287 127 19 383 
288 22 135 382 
289 129 23 382 
290 146 31 374 
291 30 142 374 
292 143 6 183 
293 5 137 183 
294 132 37 358 
295 36 134 358 
296 40 128 356 
297 136 41 356 
298 131 17 357 
299 16 133 357 
300 144 26 345 
301 25 138 345 
302 7 143 349 
303 27 144 350 
304 172 363 507 
305 75 515 537 
306 143 183 440 
307 145 11 445 
308 10 141 445 
309 361 148 538 
310 124 522 524 
311 171 377 476 
312 501 176 549 
313 152 368 518 
314 142 352 460 
315 316 366 535 
316 51 147 459 
317 284 502 517 
318 289 378 446 
319 504 473 508 
320 488 427 512 
321 373 167 493 
322 464 404 506 
323 460 352 523 
324 378 333 446 
325 457 413 549 
326 166 434 465 
327 290 397 460 
328 138 2 491 
329 24 129 491 
330 423 163 504 
331 203 371 530 
332 365 193 539 
333 163 473 504 
334 177 422 525 
335 136 356 462 
336 356 128 534 
337 502 346 517 
338 136 400 562 
339 366 316 540 
340 405 464 484 
341 131 379 380 
342 184 137 185 
343 452 420 487 
344 130 359 387 
345 375 294 544 
346 384 151 386 
347 481 410 554 
348 442 413 457 
349 468 525 545 
350 134 354 535 
351 250 380 527 
352 418 170 472 
353 515 425 537 
354 353 372 450 
355 444 150 467 
356 254 256 388 
357 133 353 550 
358 505 391 574 
359 470 344 552 
360 468 177 525 
361 339 254 388 
362 256 294 388 
363 176 457 549 
364 173 478 490 
365 184 185 186 
366 378 342 536 
367 522 369 524 
368 371 130 530 
369 353 450 550 
370 397 338 460 
371 170 418 463 
372 147 464 506 
373 408 269 498 
374 142 460 553 
375 184 186 187 
376 186 185 188 
377 178 488 512 
378 188 185 203 
379 187 186 189 
380 294 258 390 
381 204 203 396 
382 305 308 392 
383 207 204 396 
384 267 268 391 
385 221 222 393 
386 265 296 389 
387 300 299 395 
388 260 389 390 
389 258 260 390 
390 271 273 297 
391 212 210 387 
392 265 267 296 
393 225 227 298 
394 285 290 398 
395 199 221 399 
396 252 254 339 
397 262 265 389 
398 337 330 394 
399 330 328 394 
400 256 258 294 
401 312 307 392 
402 260 262 389 
403 305 303 308 
404 303 300 395 
405 307 305 392 
406 284 285 398 
407 198 199 399 
408 281 283 284 
409 265 266 267 
410 308 303 395 
411 211 210 212 
412 268 271 391 
413 332 330 337 
414 222 225 393 
415 216 213 400 
416 311 307 312 
417 317 316 318 
418 285 287 290 
419 213 212 400 
420 238 240 242 
421 195 197 198 
422 315 313 316 
423 199 201 221 
424 262 264 265 
425 209 207 210 
426 188 203 204 
427 210 207 396 
428 225 298 393 
429 271 272 273 
430 271 297 391 
431 243 245 246 
432 217 216 218 
433 76 77 149 
434 117 118 150 
435 81 82 151 
436 122 123 152 
437 61 62 163 
438 102 103 164 
439 69 70 157 
440 110 111 158 
441 56 57 165 
442 97 98 166 
443 65 66 159 
444 106 107 160 
445 46 47 161 
446 87 88 162 
447 73 74 153 
448 114 115 154 
449 84 85 155 
450 125 126 156 
451 51 52 147 
452 92 93 148 
453 54 55 181 
454 95 96 182 
455 58 59 177 
456 99 100 178 
457 78 79 167 
458 119 120 168 
459 48 49 179 
460 89 90 180 
461 225 226 227 
462 250 251 252 
463 215 213 216 
464 273 274 275 
465 284 283 285 
466 268 270 271 
467 222 224 225 
468 3 45 169 
469 4 86 170 
470 63 64 175 
471 104 105 176 
472 71 72 171 
473 112 113 172 
474 67 68 173 
475 108 109 174 
476 323 322 324 
477 219 218 299 
478 332 337 338 
479 247 249 250 
480 311 312 313 
481 227 228 229 
482 321 319 322 
483 252 253 254 
484 198 197 199 
485 187 190 191 
486 187 189 190 
487 325 324 326 
488 387 210 396 
489 229 230 232 
490 290 287 397 
491 242 240 243 
492 265 264 266 
493 209 210 211 
494 327 326 328 
495 211 212 213 
496 254 255 256 
497 315 316 317 
498 267 266 268 
499 221 201 222 
500 279 280 281 
501 256 257 258 
502 317 318 319 
503 232 233 234 
504 304 303 305 
505 276 278 279 
506 246 245 247 
507 302 300 303 
508 329 328 330 
509 287 289 397 
510 258 259 260 
511 234 235 236 
512 191 192 193 
513 281 282 283 
514 215 216 217 
515 271 270 272 
516 273 272 274 
517 306 305 307 
518 225 224 226 
519 250 249 251 
520 236 237 238 
521 321 322 323 
522 217 218 219 
523 331 330 332 
524 193 194 195 
525 227 226 228 
526 252 251 253 
527 260 261 262 
528 285 286 287 
529 310 307 311 
530 275 274 276 
531 195 196 197 
532 219 299 300 
533 323 324 325 
534 238 239 240 
535 206 204 207 
536 229 228 230 
537 325 326 327 
538 254 253 255 
539 314 313 315 
540 199 200 201 
541 262 263 264 
542 287 288 289 
543 208 207 209 
544 232 230 233 
545 256 255 257 
546 279 278 280 
547 289 342 378 
548 243 244 245 
549 327 328 329 
550 191 190 192 
551 302 303 304 
552 281 280 282 
553 258 257 259 
554 214 213 215 
555 304 305 306 
556 222 223 224 
557 329 330 331 
558 234 233 235 
559 268 269 270 
560 247 248 249 
561 285 283 286 
562 320 319 321 
563 236 235 237 
564 260 259 261 
565 193 192 194 
566 306 307 310 
567 5 1 137 
568 25 2 138 
569 14 13 139 
570 34 33 140 
571 18 17 131 
572 38 37 132 
573 7 6 143 
574 27 26 144 
575 22 21 135 
576 42 41 136 
577 12 11 145 
578 32 31 146 
579 16 15 133 
580 36 35 134 
581 20 19 127 
582 40 39 128 
583 24 23 129 
584 44 43 130 
585 10 9 141 
586 30 29 142 
587 311 313 314 
588 238 237 239 
589 199 197 200 
590 195 194 196 
591 21 20 375 
592 1 44 371 
593 19 18 383 
594 23 22 382 
595 31 30 374 
596 6 5 183 
597 37 36 358 
598 331 332 333 
599 41 40 356 
600 17 16 357 
601 26 25 345 
602 8 7 349 
603 28 27 350 
604 243 240 244 
605 262 261 263 
606 287 286 288 
607 205 340 341 
608 310 311 403 
609 206 207 208 
610 211 213 214 
611 264 263 384 
612 268 266 269 
613 247 245 248 
614 317 319 320 
615 222 201 223 
616 208 209 368 
617 301 300 302 
618 314 315 367 
619 188 204 205 
620 283 282 401 
621 276 277 278 
622 289 288 342 
623 197 196 404 
624 272 270 291 
625 128 39 355 
626 139 13 347 
627 140 33 348 
628 130 43 359 
629 134 35 354 
630 133 15 353 
631 301 309 364 
632 215 217 220 
633 311 314 403 
634 240 239 406 
635 141 9 351 
636 142 29 352 
637 226 224 293 
638 253 251 343 
639 321 323 335 
640 205 204 206 
641 231 422 423 
642 245 244 407 
643 219 300 301 
644 325 327 334 
645 276 274 277 
646 249 248 377 
647 230 228 231 
648 280 278 360 
649 257 255 292 
650 270 269 408 
651 200 197 404 
652 201 200 428 
653 208 368 369 
654 384 263 385 
655 214 215 409 
656 286 283 401 
657 224 223 411 
658 244 240 406 
659 196 194 202 
660 329 331 336 
661 342 288 361 
662 192 190 295 
663 235 233 241 
664 411 223 412 
665 239 237 344 
666 261 259 373 
667 200 404 405 
668 304 306 363 
669 214 409 410 
670 248 245 407 
671 301 302 309 
672 320 321 413 
673 364 309 381 
674 401 282 402 
675 205 206 340 
676 291 270 408 
677 215 220 409 
678 209 211 414 
679 368 209 414 
680 293 224 411 
681 367 315 415 
682 223 201 428 
683 315 317 415 
684 321 335 413 
685 251 249 416 
686 274 272 417 
687 211 214 414 
688 200 405 428 
689 255 253 424 
690 217 219 419 
691 228 226 421 
692 323 325 420 
693 249 377 416 
694 302 304 429 
695 327 329 426 
696 233 230 431 
697 317 320 415 
698 433 333 434 
699 259 257 430 
700 309 302 429 
701 272 291 417 
702 412 223 428 
703 343 251 416 
704 301 364 419 
705 231 423 431 
706 220 217 419 
707 237 235 432 
708 226 293 421 
709 335 323 420 
710 277 274 417 
711 253 343 424 
712 219 301 419 
713 331 333 433 
714 214 410 414 
715 334 327 426 
716 325 334 420 
717 277 417 418 
718 292 255 424 
719 231 228 421 
720 194 192 435 
721 231 421 422 
722 190 189 436 
723 230 231 431 
724 334 426 427 
725 292 424 425 
726 329 336 426 
727 304 363 429 
728 257 292 430 
729 241 233 431 
730 373 259 430 
731 344 237 432 
732 235 241 432 
733 336 331 433 
734 202 194 435 
735 192 295 435 
736 295 190 436 
737 410 480 518 
738 361 288 437 
739 286 401 437 
740 129 382 505 
741 205 341 438 
742 186 188 438 
743 288 286 437 
744 189 186 438 
745 188 205 438 
746 415 320 442 
747 50 459 570 
748 438 341 441 
749 360 278 443 
750 277 418 443 
751 129 505 574 
752 193 365 556 
753 189 438 441 
754 419 364 444 
755 436 189 441 
756 333 332 446 
757 320 413 442 
758 164 452 487 
759 278 277 443 
760 340 206 447 
761 208 369 447 
762 294 375 558 
763 491 297 520 
764 163 423 575 
765 220 419 444 
766 11 10 445 
767 332 338 446 
768 422 177 559 
769 412 181 496 
770 206 208 447 
771 447 369 522 
772 275 511 520 
773 415 442 456 
774 400 136 462 
775 345 138 511 
776 490 478 569 
777 181 412 565 
778 202 435 448 
779 442 160 456 
780 477 507 541 
781 314 367 458 
782 318 316 535 
783 477 172 507 
784 276 279 461 
785 151 384 551 
786 418 417 463 
787 535 354 566 
788 156 447 522 
789 411 165 545 
790 461 279 517 
791 445 141 560 
792 375 127 558 
793 295 436 451 
794 379 246 527 
795 476 377 521 
796 444 467 503 
797 420 334 487 
798 151 82 454 
799 82 83 454 
800 335 420 452 
801 244 406 490 
802 139 347 455 
803 218 216 462 
804 385 263 493 
805 261 373 493 
806 384 385 551 
807 402 282 494 
808 280 360 494 
809 484 464 564 
810 434 378 536 
811 135 375 544 
812 116 381 531 
813 386 151 454 
814 144 346 502 
815 382 296 505 
816 491 129 574 
817 216 400 462 
818 232 234 455 
819 128 355 557 
820 367 415 456 
821 239 344 499 
822 159 479 499 
823 399 351 495 
824 409 220 503 
825 403 314 458 
826 557 355 563 
827 160 442 457 
828 267 391 505 
829 427 482 487 
830 431 423 504 
831 466 373 567 
832 404 196 506 
833 363 306 507 
834 130 387 530 
835 346 461 517 
836 275 276 461 
837 417 291 463 
838 351 399 533 
839 509 471 510 
840 141 351 533 
841 427 426 512 
842 402 483 555 
843 405 404 464 
844 218 462 534 
845 281 284 517 
846 368 414 518 
847 471 161 510 
848 390 389 519 
849 273 275 520 
850 248 407 521 
851 387 359 562 
852 202 448 459 
853 97 166 465 
854 149 77 466 
855 150 118 467 
856 162 88 469 
857 165 57 468 
858 102 164 482 
859 122 152 480 
860 182 96 465 
861 78 167 466 
862 119 168 467 
863 58 177 468 
864 89 180 469 
865 92 148 483 
866 54 181 484 
867 65 159 470 
868 155 85 475 
869 114 154 474 
870 163 62 473 
871 46 161 471 
872 87 162 472 
873 157 70 476 
874 158 111 477 
875 95 182 485 
876 69 157 478 
877 159 66 479 
878 168 120 481 
879 175 64 470 
880 63 175 473 
881 4 170 475 
882 169 45 471 
883 170 86 472 
884 172 113 474 
885 71 171 476 
886 112 172 477 
887 67 173 479 
888 173 68 478 
889 96 97 465 
890 77 78 466 
891 118 119 467 
892 88 89 469 
893 57 58 468 
894 101 102 482 
895 121 122 480 
896 91 92 483 
897 53 54 484 
898 94 95 485 
899 120 121 481 
900 64 65 470 
901 85 4 475 
902 113 114 474 
903 62 63 473 
904 45 46 471 
905 86 87 472 
906 70 71 476 
907 111 112 477 
908 66 67 479 
909 68 69 478 
910 422 421 525 
911 246 247 527 
912 227 229 529 
913 387 396 530 
914 221 393 533 
915 178 100 488 
916 384 386 542 
917 83 84 489 
918 193 195 539 
919 316 313 540 
920 291 408 532 
921 334 427 487 
922 534 128 557 
923 465 434 536 
924 264 384 542 
925 269 266 542 
926 100 101 488 
927 424 343 546 
928 84 155 489 
929 482 164 487 
930 451 436 510 
931 161 451 510 
932 407 244 490 
933 401 402 555 
934 170 463 475 
935 381 309 573 
936 462 356 534 
937 212 387 562 
938 56 165 496 
939 181 55 496 
940 412 428 565 
941 482 427 488 
942 294 390 544 
943 2 24 491 
944 164 103 501 
945 104 176 501 
946 202 459 506 
947 459 147 506 
948 483 402 528 
949 499 479 561 
950 263 261 493 
951 282 280 494 
952 448 435 547 
953 179 448 547 
954 132 370 513 
955 161 47 514 
956 48 179 514 
957 198 399 495 
958 75 76 515 
959 110 158 516 
960 174 109 516 
961 511 138 520 
962 454 83 489 
963 295 451 547 
964 55 56 496 
965 124 125 522 
966 335 452 549 
967 485 361 538 
968 123 124 524 
969 160 107 526 
970 108 174 526 
971 121 480 481 
972 180 90 528 
973 386 454 498 
974 385 493 543 
975 115 116 531 
976 452 164 501 
977 423 422 497 
978 74 75 537 
979 157 476 521 
980 148 93 538 
981 101 482 488 
982 406 239 499 
983 229 492 529 
984 393 298 560 
985 79 80 543 
986 441 341 509 
987 341 340 568 
988 140 348 500 
989 459 448 570 
990 370 392 513 
991 103 104 501 
992 80 81 551 
993 284 398 502 
994 451 161 514 
995 275 461 511 
996 390 519 544 
997 182 465 536 
998 60 61 575 
999 59 60 559 
1000 166 98 572 
1001 99 178 572 
1002 179 49 570 
1003 147 52 564 
1004 298 445 560 
1005 241 431 504 
1006 409 503 554 
1007 439 166 572 
1008 178 439 572 
1009 296 267 505 
1010 454 489 498 
1011 533 393 560 
1012 403 158 541 
1013 220 444 503 
1014 196 202 506 
1015 306 310 507 
1016 241 504 508 
1017 458 174 516 
1018 380 379 527 
1019 432 241 508 
1020 448 179 570 
1021 456 160 526 
1022 460 338 553 
1023 467 168 503 
1024 198 495 539 
1025 340 453 568 
1026 508 175 552 
1027 436 441 510 
1028 410 409 554 
1029 426 336 512 
1030 531 381 573 
1031 407 490 569 
1032 392 308 513 
1033 473 175 508 
1034 47 48 514 
1035 350 398 523 
1036 292 425 548 
1037 76 149 515 
1038 109 110 516 
1039 279 281 517 
1040 414 410 518 
1041 366 134 535 
1042 91 483 528 
1043 464 147 564 
1044 430 292 548 
1045 389 296 519 
1046 297 273 520 
1047 354 376 566 
1048 507 310 541 
1049 94 485 538 
1050 377 248 521 
1051 493 167 543 
1052 125 156 522 
1053 432 508 552 
1054 398 290 523 
1055 152 123 524 
1056 421 293 525 
1057 107 108 526 
1058 247 250 527 
1059 90 91 528 
1060 362 133 550 
1061 298 227 529 
1062 53 484 564 
1063 396 203 530 
1064 497 60 575 
1065 405 484 565 
1066 441 509 510 
1067 169 471 509 
1068 154 115 531 
1069 450 242 550 
1070 60 497 559 
1071 399 221 533 
1072 521 407 569 
1073 299 218 534 
1074 513 308 563 
1075 525 293 545 
1076 153 74 537 
1077 475 463 532 
1078 93 94 538 
1079 480 152 518 
1080 429 154 573 
1081 148 437 555 
1082 195 198 539 
1083 490 406 561 
1084 430 548 567 
1085 313 312 540 
1086 310 403 541 
1087 191 193 556 
1088 423 497 575 
1089 373 430 567 
1090 503 168 554 
1091 492 145 529 
1092 266 264 542 
1093 406 499 561 
1094 167 79 543 
1095 299 534 557 
1096 293 411 545 
1097 425 424 546 
1098 484 181 565 
1099 435 295 547 
1100 165 468 545 
1101 413 335 549 
1102 81 151 551 
1103 326 324 571 
1104 344 432 552 
1105 155 475 532 
1106 348 486 571 
1107 338 337 553 
1108 437 401 555 
1109 463 291 532 
1110 519 135 544 
1111 127 388 558 
1112 388 294 558 
1113 395 299 557 
1114 177 59 559 
1115 395 557 563 
1116 497 422 559 
1117 440 191 556 
1118 400 212 562 
1119 308 395 563 
1120 52 53 564 
1121 428 405 565 
1122 49 50 570 
1123 98 99 572 
1124 391 297 574 
1125 309 429 573 
1126 61 163 575 
1127 548 149 567 
1128 483 148 555 
1129 500 348 571 
1130 425 515 548 
1131 141 533 560 
1132 175 470 552 
1133 158 477 541 
1134 173 490 561 
1135 297 491 574 
1136 168 481 554 
1137 453 169 568 
1138 318 535 566 
1139 479 173 561 
1140 509 341 568 
1141 324 500 571 
1142 149 466 567 
1143 478 157 569 
1144 157 521 569 
1145 486 326 571 
1146 515 149 548 
1147 169 509 568 
1148 537 425 546 
1149 153 537 546 
1150 154 531 573 
$EndElements
