$MeshFormat
4.1 0 8
$EndMeshFormat
$PhysicalNames
3
1 1 "Lower"
1 2 "Upper"
2 666666 "Elements"
$EndPhysicalNames
$Entities
5 4 1 0
1 0 0 0 0 
2 0.5 0 0 0 
3 -0.5 0 0 0 
4 1 0 0 0 
5 -1 0 0 0 
1 -0.5 0 0 0.5 0.492403876506104 0 1 1 2 2 -3 
2 -0.5 -0.492403876506104 0 0.5 0 0 1 1 2 3 -2 
3 -1 0 0 1 0.984807753012208 0 1 2 2 4 -5 
4 -1 -0.984807753012208 0 1 0 0 1 2 2 5 -4 
1 -1 -0.984807753012208 0 1 0.984807753012208 0 1 666666 4 3 4 -2 -1 
$EndEntities
$Nodes
9 348 1 348
0 2 0 1
1
0.5 0 0
0 3 0 1
2
-0.5 0 0
0 4 0 1
3
1 0 0
0 5 0 1
4
-1 0 0
1 1 0 15
5
6
7
8
9
10
11
12
13
14
15
16
17
18
19
0.4903926401609816 0.09754516121234344 0
0.4619397660668811 0.1913417166382573 0
0.4157348056967919 0.2777851171899796 0
0.3535533897938622 0.3535533913926853 0
0.277785115326693 0.4157348069418002 0
0.1913417145588549 0.4619397669281978 0
0.09754515899184769 0.4903926406026656 0
-2.338315288534127e-09 0.5 0
-0.09754516303391116 0.4903926397986492 0
-0.1913417178203544 0.4619397655772405 0
-0.2777851177846573 0.415734805299441 0
-0.3535533914508785 0.353553389735669 0
-0.4157348066412441 0.2777851157765071 0
-0.4619397664825666 0.1913417156347038 0
-0.4903926402585116 0.09754516072202674 0
1 2 0 15
20
21
22
23
24
25
26
27
28
29
30
31
32
33
34
-0.4903926401609816 -0.09754516121234344 0
-0.4619397660668811 -0.1913417166382573 0
-0.4157348056967919 -0.2777851171899796 0
-0.3535533897938622 -0.3535533913926853 0
-0.277785115326693 -0.4157348069418002 0
-0.1913417145588549 -0.4619397669281978 0
-0.09754515899184769 -0.4903926406026656 0
2.338315288534127e-09 -0.5 0
0.09754516303391116 -0.4903926397986492 0
0.1913417178203544 -0.4619397655772405 0
0.2777851177846573 -0.415734805299441 0
0.3535533914508785 -0.353553389735669 0
0.4157348066412441 -0.2777851157765071 0
0.4619397664825666 -0.1913417156347038 0
0.4903926402585116 -0.09754516072202674 0
1 3 0 31
35
36
37
38
39
40
41
42
43
44
45
46
47
48
49
50
51
52
53
54
55
56
57
58
59
60
61
62
63
64
65
0.9951847266498406 0.09801714055654845 0
0.9807852803228787 0.1950903224200835 0
0.9569403355379192 0.2902846778949493 0
0.9238795321373545 0.382683433267842 0
0.8819212637249102 0.471396737992381 0
0.8314696114014065 0.5555702343682516 0
0.7730104521273597 0.6343932856689569 0
0.7071067796009999 0.7071067827720952 0
0.6343932822045057 0.7730104549705614 0
0.555570230672899 0.8314696138705622 0
0.4713967340307785 0.8819212658424308 0
0.3826834291437276 0.9238795338456186 0
0.2902846736226038 0.9569403368339211 0
0.1950903180159191 0.9807852811989215 0
0.09801713598346568 0.9951847271002499 0
-4.639081946197011e-09 1 0
-0.09801714469534996 0.9951847262422041 0
-0.1950903260263918 0.9807852796055394 0
-0.2902846808733898 0.9569403346344192 0
-0.3826834355973456 0.9238795311724426 0
-0.4713967397620269 0.8819212627790147 0
-0.555570235530215 0.8314696106250073 0
-0.6343932862603271 0.7730104516420349 0
-0.707106782903804 0.707106779469291 0
-0.7730104547141333 0.6343932825169643 0
-0.8314696132814888 0.5555702315545096 0
-0.8819212650211847 0.4713967355672218 0
-0.9238795329639918 0.382683431272163 0
-0.9569403360008465 0.2902846763688828 0
-0.9807852805177208 0.1950903214405464 0
-0.9951847266970151 0.09801714007757772 0
1 4 0 31
66
67
68
69
70
71
72
73
74
75
76
77
78
79
80
81
82
83
84
85
86
87
88
89
90
91
92
93
94
95
96
-0.9951847266498406 -0.09801714055654845 0
-0.9807852803228787 -0.1950903224200835 0
-0.9569403355379192 -0.2902846778949493 0
-0.9238795321373545 -0.382683433267842 0
-0.8819212637249102 -0.471396737992381 0
-0.8314696114014065 -0.5555702343682516 0
-0.7730104521273597 -0.6343932856689569 0
-0.7071067796009999 -0.7071067827720952 0
-0.6343932822045057 -0.7730104549705614 0
-0.555570230672899 -0.8314696138705622 0
-0.4713967340307785 -0.8819212658424308 0
-0.3826834291437276 -0.9238795338456186 0
-0.2902846736226038 -0.9569403368339211 0
-0.1950903180159191 -0.9807852811989215 0
-0.09801713598346568 -0.9951847271002499 0
4.639081946197011e-09 -1 0
0.09801714469534996 -0.9951847262422041 0
0.1950903260263918 -0.9807852796055394 0
0.2902846808733898 -0.9569403346344192 0
0.3826834355973456 -0.9238795311724426 0
0.4713967397620269 -0.8819212627790147 0
0.555570235530215 -0.8314696106250073 0
0.6343932862603271 -0.7730104516420349 0
0.707106782903804 -0.707106779469291 0
0.7730104547141333 -0.6343932825169643 0
0.8314696132814888 -0.5555702315545096 0
0.8819212650211847 -0.4713967355672218 0
0.9238795329639918 -0.382683431272163 0
0.9569403360008465 -0.2902846763688828 0
0.9807852805177208 -0.1950903214405464 0
0.9951847266970151 -0.09801714007757772 0
2 1 0 252
97
98
99
100
101
102
103
104
105
106
107
108
109
110
111
112
113
114
115
116
117
118
119
120
121
122
123
124
125
126
127
128
129
130
131
132
133
134
135
136
137
138
139
140
141
142
143
144
145
146
147
148
149
150
151
152
153
154
155
156
157
158
159
160
161
162
163
164
165
166
167
168
169
170
171
172
173
174
175
176
177
178
179
180
181
182
183
184
185
186
187
188
189
190
191
192
193
194
195
196
197
198
199
200
201
202
203
204
205
206
207
208
209
210
211
212
213
214
215
216
217
218
219
220
221
222
223
224
225
226
227
228
229
230
231
232
233
234
235
236
237
238
239
240
241
242
243
244
245
246
247
248
249
250
251
252
253
254
255
256
257
258
259
260
261
262
263
264
265
266
267
268
269
270
271
272
273
274
275
276
277
278
279
280
281
282
283
284
285
286
287
288
289
290
291
292
293
294
295
296
297
298
299
300
301
302
303
304
305
306
307
308
309
310
311
312
313
314
315
316
317
318
319
320
321
322
323
324
325
326
327
328
329
330
331
332
333
334
335
336
337
338
339
340
341
342
343
344
345
346
347
348
-0.4511251606833196 0.363279606965726 0
0.4511251606833196 -0.363279606965726 0
-0.548704493762283 0.1667831584845583 0
0.548704493762283 -0.1667831584845583 0
-0.2706016558682015 0.5024012374713278 0
0.2706016558682015 -0.5024012374713278 0
-0.05950454938904313 0.5775679581112867 0
0.05950454938904313 -0.5775679581112867 0
0.575871134186239 0.06211618575529931 0
-0.575871134186239 -0.06211618575529931 0
0.1833001391490681 0.555409357017106 0
-0.1833001391490681 -0.555409357017106 0
0.3707713158629928 0.4567671447374559 0
-0.3707713158629928 -0.4567671447374559 0
0.5133292594602301 0.2682891760090004 0
-0.5133292594602301 -0.2682891760090004 0
-0.7884880317818345 0.4674254259976673 0
0.7884880317818345 -0.4674254259976673 0
-0.9039171625229652 0.1340834445676782 0
0.9039171625229652 -0.1340834445676782 0
-0.6124618824201995 0.6779017965094436 0
0.6124618824201995 -0.6779017965094436 0
-0.3073912676080017 0.8686310403942774 0
0.3073912676080017 -0.8686310403942774 0
0.03906951836794226 0.9157765498069199 0
-0.03906951836794226 -0.9157765498069199 0
0.8910817475888833 0.2204748795294633 0
-0.8910817475888833 -0.2204748795294633 0
0.6815068731471859 0.5987961476075259 0
-0.6815068731471859 -0.5987961476075259 0
0.4737886855962593 0.7884034949704848 0
-0.4737886855962593 -0.7884034949704848 0
0.2164269968316947 0.8906972195950525 0
-0.2164269968316947 -0.8906972195950525 0
0.9173214142015357 0.04213812179609223 0
-0.9173214142015357 -0.04213812179609223 0
-0.4697910752178548 0.783799051041418 0
0.4697910752178548 -0.783799051041418 0
-0.8634988757670377 0.3040535653486281 0
0.8634988757670377 -0.3040535653486281 0
-0.1274803449168041 0.9065722378369113 0
0.1274803449168041 -0.9065722378369113 0
0.8260724224186763 0.3907031593015777 0
-0.8260724224186763 -0.3907031593015777 0
0.5512214272713739 0.167211197917468 0
0.6607614835119923 0.1475016511050427 0
0.6722472199655783 0.03341594599715965 0
0.6156488221006797 0.2495831665947138 0
0.574901172377311 0.3465508978156184 0
0.7502192496963943 0.09844609450594664 0
0.7653789043305524 0.00787864928537306 0
0.6998364294655888 -0.06337559585439378 0
0.67630017829663 0.328828392953193 0
0.6424517731585268 0.4214304407374885 0
0.5440671077216004 0.439462022415061 0
0.7106274923907019 0.2372572924036584 0
-0.5512214272713739 -0.167211197917468 0
-0.6607614835119923 -0.1475016511050427 0
-0.6722472199655783 -0.03341594599715965 0
-0.6156488221006797 -0.2495831665947138 0
-0.574901172377311 -0.3465508978156184 0
-0.7502192496963943 -0.09844609450594664 0
-0.7653789043305524 -0.00787864928537306 0
-0.6998364294655888 0.06337559585439378 0
-0.67630017829663 -0.328828392953193 0
-0.6424517731585268 -0.4214304407374885 0
-0.5440671077216004 -0.439462022415061 0
-0.7106274923907019 -0.2372572924036584 0
0.03576533131241125 0.5865131234166245 0
-0.01748851617979831 0.6683963728732012 0
-0.1171656219917918 0.6568046430371038 0
0.07616116250263143 0.6740657269127358 0
-0.07419433147841613 0.7461403157017942 0
-0.1716186589090689 0.7352124146887155 0
-0.2118093173351389 0.6497273200372295 0
-0.2684903622608182 0.7236945175658208 0
-0.3110989654753369 0.6407339796633341 0
-0.03576533131241125 -0.5865131234166245 0
0.01748851617979831 -0.6683963728732012 0
0.1171656219917918 -0.6568046430371038 0
-0.07616116250263143 -0.6740657269127358 0
0.07419433147841613 -0.7461403157017942 0
0.1716186589090689 -0.7352124146887155 0
0.2118093173351389 -0.6497273200372295 0
0.2684903622608182 -0.7236945175658208 0
0.3110989654753369 -0.6407339796633341 0
0.2708673048313487 0.5140824398794194 0
0.2564027423621007 0.6144925659577438 0
0.3483263889868878 0.5759190466492845 0
0.3283166607335152 0.676354252049161 0
0.2326381365458519 0.713019608715287 0
0.4171942825968677 0.6424146149641515 0
0.311259875900428 0.7712431520469358 0
-0.2708673048313487 -0.5140824398794194 0
-0.2564027423621007 -0.6144925659577438 0
-0.3483263889868878 -0.5759190466492845 0
-0.3283166607335152 -0.676354252049161 0
-0.2326381365458519 -0.713019608715287 0
-0.4171942825968677 -0.6424146149641515 0
-0.311259875900428 -0.7712431520469358 0
-0.5073447140719143 0.2704551789745108 0
-0.5541337999639954 0.3615055203201513 0
-0.496080240585743 0.4514843394468745 0
-0.5985592896601757 0.4531493835915159 0
-0.6534645124232049 0.3648458741654713 0
-0.5487764180040962 0.5348773707643395 0
-0.449121348687104 0.5381024519270718 0
-0.6452158049133836 0.5371158297958086 0
0.5073447140719143 -0.2704551789745108 0
0.5541337999639954 -0.3615055203201513 0
0.496080240585743 -0.4514843394468745 0
0.5985592896601757 -0.4531493835915159 0
0.6534645124232049 -0.3648458741654713 0
0.5487764180040962 -0.5348773707643395 0
0.449121348687104 -0.5381024519270718 0
0.6452158049133836 -0.5371158297958086 0
-0.516256457023766 0.630369806330813 0
0.516256457023766 -0.630369806330813 0
0.4392609631946243 0.54531505842961 0
0.5010928781318816 0.6139004848210862 0
-0.4392609631946243 -0.54531505842961 0
-0.5010928781318816 -0.6139004848210862 0
-0.6142957167611173 0.2524438456694114 0
-0.7126443198447882 0.2863745604209702 0
0.6142957167611173 -0.2524438456694114 0
0.7126443198447882 -0.2863745604209702 0
0.699673767519969 -0.206969718302507 0
-0.699673767519969 0.206969718302507 0
-0.7914171277837516 0.2345255145280464 0
0.7914171277837516 -0.2345255145280464 0
-0.3747281991014241 0.7266545298069907 0
0.3747281991014241 -0.7266545298069907 0
0.5828942204200386 -0.05492395770267117 0
-0.5828942204200386 0.05492395770267117 0
0.4532442625629757 0.3700946525768692 0
-0.4532442625629757 -0.3700946525768692 0
-0.3722197181084002 0.4508073862130656 0
0.3722197181084002 -0.4508073862130656 0
-0.8178930824571249 0.07846087989039245 0
0.8178930824571249 -0.07846087989039245 0
0.6162571147987707 0.5128571335096849 0
0.703741701027443 0.494493919511986 0
-0.6162571147987707 -0.5128571335096849 0
-0.703741701027443 -0.494493919511986 0
-0.1718391281853145 0.56085020386825 0
0.1718391281853145 -0.56085020386825 0
0.02308241785234905 0.7542872847887644 0
0.1315739751306657 0.750957928524679 0
-0.03553640419744565 0.8421688528453354 0
-0.02308241785234905 -0.7542872847887644 0
-0.1315739751306657 -0.750957928524679 0
0.03553640419744565 -0.8421688528453354 0
-0.744613187360603 0.3800549143107639 0
0.744613187360603 -0.3800549143107639 0
-0.4063362489391722 0.6247072805304134 0
0.4063362489391722 -0.6247072805304134 0
0.7702308917795874 0.3175716779156202 0
-0.7702308917795874 -0.3175716779156202 0
-0.2376935970744356 0.8046330961779131 0
0.2376935970744356 -0.8046330961779131 0
-0.6952425723908037 0.4587065799419109 0
0.6952425723908037 -0.4587065799419109 0
0.7349891931904763 0.4030840405840807 0
-0.7349891931904763 -0.4030840405840807 0
0.1697508252701113 0.648880609336945 0
-0.1697508252701113 -0.648880609336945 0
0.2247567652164923 0.8055507176494735 0
-0.2247567652164923 -0.8055507176494735 0
-0.3440473014894959 0.5573116998083544 0
0.3440473014894959 -0.5573116998083544 0
0.4596865372015521 0.4596865392772134 0
-0.4596865372015521 -0.4596865392772134 0
0.1267159294338372 0.9087119062134117 0
-0.1267159294338372 -0.9087119062134117 0
0.8640824906948142 0.3075876861666001 0
-0.8640824906948142 -0.3075876861666001 0
-0.3882733563810256 0.8282209363378171 0
0.3882733563810256 -0.8282209363378171 0
0.9051278833914669 0.1304124564871666 0
0.8222294628915097 0.1552528921740474 0
-0.9051278833914669 -0.1304124564871666 0
-0.8222294628915097 -0.1552528921740474 0
0.9188559288989223 -0.04549184399963364 0
-0.9188559288989223 0.04549184399963364 0
-0.8877557340870835 0.2191303923984413 0
0.8877557340870835 -0.2191303923984413 0
-0.5400288697310919 0.7323765671078709 0
0.5400288697310919 -0.7323765671078709 0
-0.7387457575782795 0.5476528602856811 0
0.7387457575782795 -0.5476528602856811 0
0.5520888506253018 0.7418776108139984 0
0.6203675195624594 0.6813855876675644 0
-0.5520888506253018 -0.7418776108139984 0
-0.6203675195624594 -0.6813855876675644 0
0.3905895127972204 0.8288004289232025 0
0.3026668755853612 0.862851898149034 0
-0.3905895127972204 -0.8288004289232025 0
-0.3026668755853612 -0.862851898149034 0
-0.8312024971870253 0.3863549748278595 0
0.8312024971870253 -0.3863549748278595 0
0.3980655635935739 0.736079008442187 0
-0.3980655635935739 -0.736079008442187 0
-0.6791271738263039 0.6174923871144582 0
0.6791271738263039 -0.6174923871144582 0
0.7887072403732966 0.4790815220627347 0
-0.7887072403732966 -0.4790815220627347 0
-0.4566634901323897 0.6986641765316685 0
0.4566634901323897 -0.6986641765316685 0
0.5260647997615862 0.5278740976393672 0
-0.5260647997615862 -0.5278740976393672 0
-0.1408453277006864 0.8206362624633353 0
0.1408453277006864 -0.8206362624633353 0
-0.04439287601614788 0.9319404733462741 0
0.04439287601614788 -0.9319404733462741 0
-0.6449709790387753 0.1425339340312309 0
0.6449709790387753 -0.1425339340312309 0
-0.2164642573666182 0.8896997085187324 0
0.2164642573666182 -0.8896997085187324 0
0.06742868849583702 0.8322108722249969 0
-0.06742868849583702 -0.8322108722249969 0
0.8297410794727395 0.07135829290088534 0
-0.8297410794727395 -0.07135829290088534 0
0.5827290532795931 0.6010521056171477 0
-0.5827290532795931 -0.6010521056171477 0
0.8016117178874553 0.2356619440180667 0
-0.8016117178874553 -0.2356619440180667 0
0.4822192324699266 0.6990290660782609 0
-0.4822192324699266 -0.6990290660782609 0
0.8498380818721749 -0.0005155319815350944 0
-0.8498380818721749 0.0005155319815350944 0
-0.6003675472375498 0.5995514381029726 0
0.6003675472375498 -0.5995514381029726 0
-0.3193973472676847 0.7874639891714358 0
0.3193973472676847 -0.7874639891714358 0
0.754049250476869 0.5592410406181314 0
-0.754049250476869 -0.5592410406181314 0
-0.8299756219301803 0.1567448321368663 0
0.8299756219301803 -0.1567448321368663 0
-0.2549058718587611 0.5871178630449138 0
0.2549058718587611 -0.5871178630449138 0
-0.7858191691948949 0.3140143524329528 0
0.7858191691948949 -0.3140143524329528 0
0.7492879005998487 -0.148165202665477 0
-0.7492879005998487 0.148165202665477 0
0.148559659143837 0.8382637117392464 0
-0.148559659143837 -0.8382637117392464 0
0.7490898812756106 0.1748239748413524 0
-0.7490898812756106 -0.1748239748413524 0
0.112504523445214 0.5910522914572154 0
-0.112504523445214 -0.5910522914572154 0
0.5476995068138324 0.6674489709996115 0
-0.5476995068138324 -0.6674489709996115 0
$EndNodes
$Elements
5 696 1 696
1 1 1 16
1 1 5 
2 5 6 
3 6 7 
4 7 8 
5 8 9 
6 9 10 
7 10 11 
8 11 12 
9 12 13 
10 13 14 
11 14 15 
12 15 16 
13 16 17 
14 17 18 
15 18 19 
16 19 2 
1 2 1 16
17 2 20 
18 20 21 
19 21 22 
20 22 23 
21 23 24 
22 24 25 
23 25 26 
24 26 27 
25 27 28 
26 28 29 
27 29 30 
28 30 31 
29 31 32 
30 32 33 
31 33 34 
32 34 1 
1 3 1 32
33 3 35 
34 35 36 
35 36 37 
36 37 38 
37 38 39 
38 39 40 
39 40 41 
40 41 42 
41 42 43 
42 43 44 
43 44 45 
44 45 46 
45 46 47 
46 47 48 
47 48 49 
48 49 50 
49 50 51 
50 51 52 
51 52 53 
52 53 54 
53 54 55 
54 55 56 
55 56 57 
56 57 58 
57 58 59 
58 59 60 
59 60 61 
60 61 62 
61 62 63 
62 63 64 
63 64 65 
64 65 4 
1 4 1 32
65 4 66 
66 66 67 
67 67 68 
68 68 69 
69 69 70 
70 70 71 
71 71 72 
72 72 73 
73 73 74 
74 74 75 
75 75 76 
76 76 77 
77 77 78 
78 78 79 
79 79 80 
80 80 81 
81 81 82 
82 82 83 
83 83 84 
84 84 85 
85 85 86 
86 86 87 
87 87 88 
88 88 89 
89 89 90 
90 90 91 
91 91 92 
92 92 93 
93 93 94 
94 94 95 
95 95 96 
96 96 3 
2 1 2 600
97 185 109 215 
98 192 110 217 
99 148 143 229 
100 160 155 230 
101 203 199 233 
102 211 207 234 
103 145 151 231 
104 157 163 232 
105 187 244 261 
106 194 247 262 
107 198 201 219 
108 206 209 221 
109 144 142 152 
110 156 154 164 
111 235 115 280 
112 236 116 279 
113 199 97 233 
114 207 98 234 
115 143 105 229 
116 155 106 230 
117 111 145 231 
118 112 157 232 
119 183 109 185 
120 190 110 192 
121 117 213 283 
122 118 214 284 
123 235 280 326 
124 236 279 325 
125 141 142 144 
126 153 154 156 
127 197 198 219 
128 205 206 221 
129 125 237 238 
130 126 239 240 
131 99 219 311 
132 100 221 312 
133 219 224 311 
134 221 223 312 
135 244 187 263 
136 247 194 264 
137 133 227 273 
138 134 228 274 
139 263 189 292 
140 264 196 294 
141 219 201 220 
142 221 209 222 
143 244 168 261 
144 247 177 262 
145 283 213 303 
146 284 214 304 
147 148 312 339 
148 160 311 340 
149 103 167 241 
150 104 176 242 
151 255 307 313 
152 256 308 314 
153 307 137 313 
154 308 138 314 
155 312 223 339 
156 311 224 340 
157 129 263 292 
158 130 264 294 
159 213 117 327 
160 214 118 328 
161 152 142 343 
162 164 154 344 
163 225 135 281 
164 226 136 282 
165 141 105 142 
166 153 106 154 
167 197 97 198 
168 205 98 206 
169 111 141 144 
170 112 153 156 
171 107 183 184 
172 108 190 191 
173 99 197 219 
174 100 205 221 
175 167 171 241 
176 176 180 242 
177 245 137 307 
178 248 138 308 
179 203 233 265 
180 211 234 266 
181 215 109 267 
182 217 110 268 
183 231 151 267 
184 232 163 268 
185 227 133 303 
186 228 134 304 
187 148 229 312 
188 160 230 311 
189 125 238 331 
190 126 240 332 
191 137 245 309 
192 138 248 310 
193 12 11 165 
194 27 26 174 
195 101 14 241 
196 102 29 242 
197 13 103 241 
198 28 104 242 
199 105 1 229 
200 106 2 230 
201 19 99 230 
202 34 100 229 
203 7 111 231 
204 22 112 232 
205 109 8 231 
206 110 23 232 
207 15 101 233 
208 30 102 234 
209 97 16 233 
210 98 31 234 
211 5 105 141 
212 20 106 153 
213 111 6 141 
214 112 21 153 
215 107 10 183 
216 108 25 190 
217 9 109 183 
218 24 110 190 
219 17 97 197 
220 32 98 205 
221 99 18 197 
222 100 33 205 
223 165 11 345 
224 174 26 346 
225 173 265 335 
226 182 266 336 
227 115 235 333 
228 116 236 334 
229 237 125 319 
230 239 126 320 
231 273 227 329 
232 274 228 330 
233 219 220 224 
234 221 222 223 
235 233 101 265 
236 234 102 266 
237 109 231 267 
238 110 232 268 
239 135 225 337 
240 136 226 338 
241 173 251 265 
242 182 252 266 
243 198 97 199 
244 206 98 207 
245 142 105 143 
246 154 106 155 
247 111 144 145 
248 112 156 157 
249 184 183 185 
250 191 190 192 
251 220 201 249 
252 222 209 250 
253 257 204 285 
254 258 212 286 
255 265 101 335 
256 266 102 336 
257 173 227 251 
258 182 228 252 
259 230 99 311 
260 229 100 312 
261 11 107 345 
262 26 108 346 
263 187 189 263 
264 194 196 264 
265 101 241 335 
266 102 242 336 
267 224 220 225 
268 223 222 226 
269 131 275 317 
270 132 277 318 
271 121 245 315 
272 122 248 316 
273 184 185 186 
274 191 192 193 
275 198 199 200 
276 206 207 208 
277 145 144 149 
278 157 156 161 
279 142 143 146 
280 154 155 158 
281 184 186 187 
282 191 193 194 
283 198 200 201 
284 206 208 209 
285 149 144 152 
286 161 156 164 
287 186 185 188 
288 193 192 195 
289 200 199 202 
290 208 207 210 
291 145 149 150 
292 157 161 162 
293 146 143 147 
294 158 155 159 
295 188 185 215 
296 195 192 217 
297 147 143 148 
298 159 155 160 
299 145 150 151 
300 157 162 163 
301 202 199 203 
302 210 207 211 
303 187 186 189 
304 194 193 196 
305 200 202 204 
306 208 210 212 
307 49 50 121 
308 80 81 122 
309 36 37 123 
310 67 68 124 
311 44 45 127 
312 75 76 128 
313 57 58 117 
314 88 89 118 
315 53 54 119 
316 84 85 120 
317 60 61 113 
318 91 92 114 
319 41 42 125 
320 72 73 126 
321 64 65 115 
322 95 96 116 
323 38 39 139 
324 69 70 140 
325 47 48 129 
326 78 79 130 
327 3 35 131 
328 4 66 132 
329 62 63 135 
330 93 94 136 
331 55 56 133 
332 86 87 134 
333 51 52 137 
334 82 83 138 
335 151 150 237 
336 163 162 239 
337 147 148 236 
338 159 160 235 
339 188 215 216 
340 195 217 218 
341 202 203 213 
342 210 211 214 
343 167 170 171 
344 176 179 180 
345 171 172 173 
346 180 181 182 
347 171 170 172 
348 180 179 181 
349 5 1 105 
350 20 2 106 
351 15 14 101 
352 30 29 102 
353 7 6 111 
354 22 21 112 
355 13 12 103 
356 28 27 104 
357 11 10 107 
358 26 25 108 
359 17 16 97 
360 32 31 98 
361 19 18 99 
362 34 33 100 
363 9 8 109 
364 24 23 110 
365 14 13 241 
366 29 28 242 
367 1 34 229 
368 2 19 230 
369 8 7 231 
370 23 22 232 
371 16 15 233 
372 31 30 234 
373 173 172 227 
374 182 181 228 
375 6 5 141 
376 21 20 153 
377 10 9 183 
378 25 24 190 
379 18 17 197 
380 33 32 205 
381 103 12 165 
382 104 27 174 
383 103 166 167 
384 104 175 176 
385 237 150 238 
386 239 162 240 
387 167 169 170 
388 176 178 179 
389 166 165 168 
390 175 174 177 
391 103 165 166 
392 104 174 175 
393 167 166 169 
394 176 175 178 
395 243 168 244 
396 246 177 247 
397 166 168 243 
398 175 177 246 
399 169 243 245 
400 178 246 248 
401 169 166 243 
402 178 175 246 
403 113 257 285 
404 114 258 286 
405 275 276 317 
406 277 278 318 
407 142 146 343 
408 154 158 344 
409 225 281 333 
410 226 282 334 
411 245 121 309 
412 248 122 310 
413 213 203 251 
414 214 211 252 
415 149 152 253 
416 161 164 254 
417 133 283 303 
418 134 284 304 
419 238 150 259 
420 240 162 260 
421 200 204 257 
422 208 212 258 
423 189 291 292 
424 196 293 294 
425 291 189 297 
426 293 196 298 
427 269 121 315 
428 270 122 316 
429 107 184 261 
430 108 191 262 
431 149 253 259 
432 161 254 260 
433 253 139 259 
434 254 140 260 
435 186 188 297 
436 193 195 298 
437 169 245 307 
438 178 248 308 
439 251 227 303 
440 252 228 304 
441 172 170 255 
442 181 179 256 
443 249 201 257 
444 250 209 258 
445 139 253 271 
446 140 254 272 
447 113 249 257 
448 114 250 258 
449 236 148 339 
450 235 160 340 
451 201 200 257 
452 209 208 258 
453 245 243 315 
454 248 246 316 
455 150 149 259 
456 162 161 260 
457 184 187 261 
458 191 194 262 
459 202 213 327 
460 210 214 328 
461 271 253 321 
462 272 254 322 
463 255 170 307 
464 256 179 308 
465 147 236 325 
466 159 235 326 
467 188 216 323 
468 195 218 324 
469 60 113 285 
470 91 114 286 
471 127 45 291 
472 128 76 293 
473 44 127 287 
474 75 128 289 
475 123 37 271 
476 124 68 272 
477 49 121 269 
478 80 122 270 
479 125 42 288 
480 126 73 290 
481 129 48 269 
482 130 79 270 
483 38 139 271 
484 69 140 272 
485 115 65 280 
486 116 96 279 
487 64 115 281 
488 95 116 282 
489 47 129 292 
490 78 130 294 
491 36 123 275 
492 67 124 277 
493 119 54 273 
494 120 85 274 
495 57 117 283 
496 88 118 284 
497 3 131 279 
498 4 132 280 
499 135 63 281 
500 136 94 282 
501 55 133 273 
502 86 134 274 
503 131 35 275 
504 132 66 277 
505 133 56 283 
506 134 87 284 
507 59 60 285 
508 90 91 286 
509 45 46 291 
510 76 77 293 
511 43 44 287 
512 74 75 289 
513 48 49 269 
514 79 80 270 
515 37 38 271 
516 68 69 272 
517 42 43 288 
518 73 74 290 
519 46 47 292 
520 77 78 294 
521 96 3 279 
522 65 4 280 
523 63 64 281 
524 94 95 282 
525 54 55 273 
526 85 86 274 
527 35 36 275 
528 66 67 277 
529 56 57 283 
530 87 88 284 
531 238 259 301 
532 240 260 302 
533 113 61 295 
534 114 92 296 
535 62 135 295 
536 93 136 296 
537 269 315 341 
538 270 316 342 
539 117 58 299 
540 118 89 300 
541 249 113 295 
542 250 114 296 
543 251 203 265 
544 252 211 266 
545 39 40 301 
546 70 71 302 
547 121 50 309 
548 122 81 310 
549 51 137 309 
550 82 138 310 
551 53 119 313 
552 84 120 314 
553 137 52 313 
554 138 83 314 
555 61 62 295 
556 92 93 296 
557 189 186 297 
558 196 193 298 
559 58 59 299 
560 89 90 300 
561 139 39 301 
562 140 70 302 
563 275 123 276 
564 277 124 278 
565 216 215 305 
566 218 217 306 
567 151 237 305 
568 163 239 306 
569 127 291 297 
570 128 293 298 
571 170 169 307 
572 179 178 308 
573 50 51 309 
574 81 82 310 
575 253 152 321 
576 254 164 322 
577 216 305 319 
578 218 306 320 
579 305 237 319 
580 306 239 320 
581 172 255 329 
582 181 256 330 
583 255 119 329 
584 256 120 330 
585 241 171 335 
586 242 180 336 
587 213 251 303 
588 214 252 304 
589 123 271 321 
590 124 272 322 
591 41 125 331 
592 72 126 332 
593 297 188 323 
594 298 195 324 
595 52 53 313 
596 83 84 314 
597 259 139 301 
598 260 140 302 
599 285 204 299 
600 286 212 300 
601 43 287 288 
602 74 289 290 
603 291 46 292 
604 293 77 294 
605 225 220 337 
606 226 222 338 
607 119 255 313 
608 120 256 314 
609 215 267 305 
610 217 268 306 
611 267 151 305 
612 268 163 306 
613 59 285 299 
614 90 286 300 
615 243 244 315 
616 246 247 316 
617 146 147 317 
618 158 159 318 
619 295 135 337 
620 296 136 338 
621 301 40 331 
622 302 71 332 
623 249 295 337 
624 250 296 338 
625 125 288 319 
626 126 290 320 
627 281 115 333 
628 282 116 334 
629 238 301 331 
630 240 302 332 
631 127 297 323 
632 128 298 324 
633 276 146 317 
634 278 158 318 
635 204 202 327 
636 212 210 328 
637 227 172 329 
638 228 181 330 
639 40 41 331 
640 71 72 332 
641 168 165 345 
642 177 174 346 
643 117 299 327 
644 118 300 328 
645 276 123 321 
646 278 124 322 
647 171 173 335 
648 180 182 336 
649 223 226 339 
650 224 225 340 
651 263 129 341 
652 264 130 342 
653 129 269 341 
654 130 270 342 
655 220 249 337 
656 222 250 338 
657 131 317 325 
658 132 318 326 
659 323 216 347 
660 324 218 348 
661 299 204 327 
662 300 212 328 
663 119 273 329 
664 120 274 330 
665 287 127 323 
666 289 128 324 
667 279 131 325 
668 280 132 326 
669 321 152 343 
670 322 164 344 
671 261 168 345 
672 262 177 346 
673 319 288 347 
674 320 290 348 
675 317 147 325 
676 318 159 326 
677 146 276 343 
678 158 278 344 
679 244 263 341 
680 247 264 342 
681 107 261 345 
682 108 262 346 
683 216 319 347 
684 218 320 348 
685 315 244 341 
686 316 247 342 
687 288 287 347 
688 290 289 348 
689 276 321 343 
690 278 322 344 
691 287 323 347 
692 289 324 348 
693 333 235 340 
694 334 236 339 
695 225 333 340 
696 226 334 339 
$EndElements
